%TF.GenerationSoftware,KiCad,Pcbnew,6.0.11-2627ca5db0~126~ubuntu22.04.1*%
%TF.CreationDate,2024-01-25T08:43:26+01:00*%
%TF.ProjectId,lmwb_ds18b20,6c6d7762-5f64-4733-9138-6232302e6b69,rev?*%
%TF.SameCoordinates,Original*%
%TF.FileFunction,Drillmap*%
%TF.FilePolarity,Positive*%
%FSLAX45Y45*%
G04 Gerber Fmt 4.5, Leading zero omitted, Abs format (unit mm)*
G04 Created by KiCad (PCBNEW 6.0.11-2627ca5db0~126~ubuntu22.04.1) date 2024-01-25 08:43:26*
%MOMM*%
%LPD*%
G01*
G04 APERTURE LIST*
%ADD10C,0.150000*%
%ADD11C,0.200000*%
G04 APERTURE END LIST*
D10*
X16604000Y-5936000D02*
X16858000Y-6190000D01*
X10000000Y-9923800D02*
X10000000Y-4742200D01*
X16858000Y-6190000D02*
X16858000Y-9619000D01*
X16527800Y-10000000D02*
X10076200Y-10000000D01*
X10076200Y-4666000D02*
X16350000Y-4666000D01*
X10000000Y-9923800D02*
G75*
G03*
X10076200Y-10000000I76200J0D01*
G01*
X11807000Y-6477000D02*
G75*
G03*
X11807000Y-6477000I-250000J0D01*
G01*
X16858000Y-9619000D02*
X16604000Y-9873000D01*
X16350000Y-4666000D02*
X16604000Y-4920000D01*
X16527800Y-10000000D02*
G75*
G03*
X16604000Y-9923800I0J76200D01*
G01*
X11807000Y-8095000D02*
G75*
G03*
X11807000Y-8095000I-250000J0D01*
G01*
X16604000Y-4920000D02*
X16604000Y-5936000D01*
X16604000Y-9873000D02*
X16604000Y-9923800D01*
X10076200Y-4666000D02*
G75*
G03*
X10000000Y-4742200I0J-76200D01*
G01*
D11*
X10250119Y-10317976D02*
X10250119Y-10117976D01*
X10297738Y-10117976D01*
X10326310Y-10127500D01*
X10345357Y-10146548D01*
X10354881Y-10165595D01*
X10364405Y-10203690D01*
X10364405Y-10232262D01*
X10354881Y-10270357D01*
X10345357Y-10289405D01*
X10326310Y-10308452D01*
X10297738Y-10317976D01*
X10250119Y-10317976D01*
X10450119Y-10317976D02*
X10450119Y-10184643D01*
X10450119Y-10222738D02*
X10459643Y-10203690D01*
X10469167Y-10194167D01*
X10488214Y-10184643D01*
X10507262Y-10184643D01*
X10573929Y-10317976D02*
X10573929Y-10184643D01*
X10573929Y-10117976D02*
X10564405Y-10127500D01*
X10573929Y-10137024D01*
X10583452Y-10127500D01*
X10573929Y-10117976D01*
X10573929Y-10137024D01*
X10697738Y-10317976D02*
X10678690Y-10308452D01*
X10669167Y-10289405D01*
X10669167Y-10117976D01*
X10802500Y-10317976D02*
X10783452Y-10308452D01*
X10773929Y-10289405D01*
X10773929Y-10117976D01*
X11031071Y-10317976D02*
X11031071Y-10117976D01*
X11097738Y-10260833D01*
X11164405Y-10117976D01*
X11164405Y-10317976D01*
X11345357Y-10317976D02*
X11345357Y-10213214D01*
X11335833Y-10194167D01*
X11316786Y-10184643D01*
X11278690Y-10184643D01*
X11259643Y-10194167D01*
X11345357Y-10308452D02*
X11326309Y-10317976D01*
X11278690Y-10317976D01*
X11259643Y-10308452D01*
X11250119Y-10289405D01*
X11250119Y-10270357D01*
X11259643Y-10251310D01*
X11278690Y-10241786D01*
X11326309Y-10241786D01*
X11345357Y-10232262D01*
X11440595Y-10184643D02*
X11440595Y-10384643D01*
X11440595Y-10194167D02*
X11459643Y-10184643D01*
X11497738Y-10184643D01*
X11516786Y-10194167D01*
X11526309Y-10203690D01*
X11535833Y-10222738D01*
X11535833Y-10279881D01*
X11526309Y-10298929D01*
X11516786Y-10308452D01*
X11497738Y-10317976D01*
X11459643Y-10317976D01*
X11440595Y-10308452D01*
X11621548Y-10298929D02*
X11631071Y-10308452D01*
X11621548Y-10317976D01*
X11612024Y-10308452D01*
X11621548Y-10298929D01*
X11621548Y-10317976D01*
X11621548Y-10194167D02*
X11631071Y-10203690D01*
X11621548Y-10213214D01*
X11612024Y-10203690D01*
X11621548Y-10194167D01*
X11621548Y-10213214D01*
M02*
