G04 #@! TF.GenerationSoftware,KiCad,Pcbnew,6.0.11-2627ca5db0~126~ubuntu22.04.1*
G04 #@! TF.CreationDate,2024-01-25T08:43:18+01:00*
G04 #@! TF.ProjectId,lmwb_ds18b20,6c6d7762-5f64-4733-9138-6232302e6b69,rev?*
G04 #@! TF.SameCoordinates,Original*
G04 #@! TF.FileFunction,Legend,Bot*
G04 #@! TF.FilePolarity,Positive*
%FSLAX46Y46*%
G04 Gerber Fmt 4.6, Leading zero omitted, Abs format (unit mm)*
G04 Created by KiCad (PCBNEW 6.0.11-2627ca5db0~126~ubuntu22.04.1) date 2024-01-25 08:43:18*
%MOMM*%
%LPD*%
G01*
G04 APERTURE LIST*
%ADD10R,1.700000X1.700000*%
%ADD11O,1.700000X1.700000*%
%ADD12R,2.200000X2.200000*%
%ADD13C,2.200000*%
%ADD14R,1.500000X2.300000*%
%ADD15O,1.500000X2.300000*%
G04 APERTURE END LIST*
%LPC*%
D10*
X127940000Y-97460000D03*
D11*
X130480000Y-97460000D03*
X133020000Y-97460000D03*
X135560000Y-97460000D03*
X138100000Y-97460000D03*
X140640000Y-97460000D03*
X143180000Y-97460000D03*
X145720000Y-97460000D03*
D10*
X150800000Y-97460000D03*
D11*
X153340000Y-97460000D03*
X155880000Y-97460000D03*
X158420000Y-97460000D03*
X160960000Y-97460000D03*
X163500000Y-97460000D03*
D10*
X118796000Y-49200000D03*
D11*
X121336000Y-49200000D03*
X123876000Y-49200000D03*
X126416000Y-49200000D03*
X128956000Y-49200000D03*
X131496000Y-49200000D03*
X134036000Y-49200000D03*
X136576000Y-49200000D03*
X139116000Y-49200000D03*
X141656000Y-49200000D03*
D10*
X145720000Y-49200000D03*
D11*
X148260000Y-49200000D03*
X150800000Y-49200000D03*
X153340000Y-49200000D03*
X155880000Y-49200000D03*
X158420000Y-49200000D03*
X160960000Y-49200000D03*
X163500000Y-49200000D03*
D10*
X106350000Y-49200000D03*
D11*
X108890000Y-49200000D03*
X111430000Y-49200000D03*
X113970000Y-49200000D03*
D12*
X102800000Y-95020000D03*
D13*
X105340000Y-95020000D03*
X107880000Y-95020000D03*
X110420000Y-95020000D03*
D10*
X109525000Y-79680000D03*
D11*
X109525000Y-77140000D03*
D12*
X164770000Y-92106000D03*
D13*
X164770000Y-89566000D03*
X164770000Y-87026000D03*
X164770000Y-84486000D03*
X164770000Y-81946000D03*
X164770000Y-79406000D03*
X164770000Y-76866000D03*
X164770000Y-74326000D03*
X164770000Y-71786000D03*
X164770000Y-69246000D03*
X164770000Y-66706000D03*
X164770000Y-64166000D03*
D14*
X116603000Y-97127500D03*
D15*
X119143000Y-97127500D03*
X121683000Y-97127500D03*
M02*
