%TF.GenerationSoftware,KiCad,Pcbnew,6.0.11-2627ca5db0~126~ubuntu22.04.1*%
%TF.CreationDate,2024-01-25T08:43:26+01:00*%
%TF.ProjectId,lmwb_ds18b20,6c6d7762-5f64-4733-9138-6232302e6b69,rev?*%
%TF.SameCoordinates,Original*%
%TF.FileFunction,Drillmap*%
%TF.FilePolarity,Positive*%
%FSLAX45Y45*%
G04 Gerber Fmt 4.5, Leading zero omitted, Abs format (unit mm)*
G04 Created by KiCad (PCBNEW 6.0.11-2627ca5db0~126~ubuntu22.04.1) date 2024-01-25 08:43:26*
%MOMM*%
%LPD*%
G01*
G04 APERTURE LIST*
%ADD10C,0.150000*%
%ADD11C,0.200000*%
%ADD12C,0.040000*%
%ADD13C,0.100000*%
%ADD14C,0.110000*%
G04 APERTURE END LIST*
D10*
X16604000Y-5936000D02*
X16858000Y-6190000D01*
X10000000Y-9923800D02*
X10000000Y-4742200D01*
X16858000Y-6190000D02*
X16858000Y-9619000D01*
X16527800Y-10000000D02*
X10076200Y-10000000D01*
X10076200Y-4666000D02*
X16350000Y-4666000D01*
X10000000Y-9923800D02*
G75*
G03*
X10076200Y-10000000I76200J0D01*
G01*
X11807000Y-6477000D02*
G75*
G03*
X11807000Y-6477000I-250000J0D01*
G01*
X16858000Y-9619000D02*
X16604000Y-9873000D01*
X16350000Y-4666000D02*
X16604000Y-4920000D01*
X16527800Y-10000000D02*
G75*
G03*
X16604000Y-9923800I0J76200D01*
G01*
X11807000Y-8095000D02*
G75*
G03*
X11807000Y-8095000I-250000J0D01*
G01*
X16604000Y-4920000D02*
X16604000Y-5936000D01*
X16604000Y-9873000D02*
X16604000Y-9923800D01*
X10076200Y-4666000D02*
G75*
G03*
X10000000Y-4742200I0J-76200D01*
G01*
D11*
D12*
X10355900Y-8958900D02*
X10395900Y-8998900D01*
X10395900Y-8958900D02*
X10355900Y-8998900D01*
X12248200Y-8743000D02*
X12288200Y-8783000D01*
X12288200Y-8743000D02*
X12248200Y-8783000D01*
X12895900Y-7638100D02*
X12935900Y-7678100D01*
X12935900Y-7638100D02*
X12895900Y-7678100D01*
X13492800Y-8920800D02*
X13532800Y-8960800D01*
X13532800Y-8920800D02*
X13492800Y-8960800D01*
X13492800Y-8997000D02*
X13532800Y-9037000D01*
X13532800Y-8997000D02*
X13492800Y-9037000D01*
X13518200Y-7193600D02*
X13558200Y-7233600D01*
X13558200Y-7193600D02*
X13518200Y-7233600D01*
X14331000Y-8387400D02*
X14371000Y-8427400D01*
X14371000Y-8387400D02*
X14331000Y-8427400D01*
X14585000Y-8387400D02*
X14625000Y-8427400D01*
X14625000Y-8387400D02*
X14585000Y-8427400D01*
X14915200Y-5441000D02*
X14955200Y-5481000D01*
X14955200Y-5441000D02*
X14915200Y-5481000D01*
X15651800Y-5822000D02*
X15691800Y-5862000D01*
X15691800Y-5822000D02*
X15651800Y-5862000D01*
X16261400Y-8946200D02*
X16301400Y-8986200D01*
X16301400Y-8946200D02*
X16261400Y-8986200D01*
D13*
X10685000Y-4920000D02*
G75*
G03*
X10685000Y-4920000I-50000J0D01*
G01*
X10939000Y-4920000D02*
G75*
G03*
X10939000Y-4920000I-50000J0D01*
G01*
X11002500Y-7714000D02*
G75*
G03*
X11002500Y-7714000I-50000J0D01*
G01*
X11002500Y-7968000D02*
G75*
G03*
X11002500Y-7968000I-50000J0D01*
G01*
X11193000Y-4920000D02*
G75*
G03*
X11193000Y-4920000I-50000J0D01*
G01*
X11447000Y-4920000D02*
G75*
G03*
X11447000Y-4920000I-50000J0D01*
G01*
X11710300Y-9712750D02*
G75*
G03*
X11710300Y-9712750I-50000J0D01*
G01*
X11929600Y-4920000D02*
G75*
G03*
X11929600Y-4920000I-50000J0D01*
G01*
X11964300Y-9712750D02*
G75*
G03*
X11964300Y-9712750I-50000J0D01*
G01*
X12183600Y-4920000D02*
G75*
G03*
X12183600Y-4920000I-50000J0D01*
G01*
X12218300Y-9712750D02*
G75*
G03*
X12218300Y-9712750I-50000J0D01*
G01*
X12437600Y-4920000D02*
G75*
G03*
X12437600Y-4920000I-50000J0D01*
G01*
X12691600Y-4920000D02*
G75*
G03*
X12691600Y-4920000I-50000J0D01*
G01*
X12844000Y-9746000D02*
G75*
G03*
X12844000Y-9746000I-50000J0D01*
G01*
X12945600Y-4920000D02*
G75*
G03*
X12945600Y-4920000I-50000J0D01*
G01*
X13098000Y-9746000D02*
G75*
G03*
X13098000Y-9746000I-50000J0D01*
G01*
X13199600Y-4920000D02*
G75*
G03*
X13199600Y-4920000I-50000J0D01*
G01*
X13352000Y-9746000D02*
G75*
G03*
X13352000Y-9746000I-50000J0D01*
G01*
X13453600Y-4920000D02*
G75*
G03*
X13453600Y-4920000I-50000J0D01*
G01*
X13606000Y-9746000D02*
G75*
G03*
X13606000Y-9746000I-50000J0D01*
G01*
X13707600Y-4920000D02*
G75*
G03*
X13707600Y-4920000I-50000J0D01*
G01*
X13860000Y-9746000D02*
G75*
G03*
X13860000Y-9746000I-50000J0D01*
G01*
X13961600Y-4920000D02*
G75*
G03*
X13961600Y-4920000I-50000J0D01*
G01*
X14114000Y-9746000D02*
G75*
G03*
X14114000Y-9746000I-50000J0D01*
G01*
X14215600Y-4920000D02*
G75*
G03*
X14215600Y-4920000I-50000J0D01*
G01*
X14368000Y-9746000D02*
G75*
G03*
X14368000Y-9746000I-50000J0D01*
G01*
X14622000Y-4920000D02*
G75*
G03*
X14622000Y-4920000I-50000J0D01*
G01*
X14622000Y-9746000D02*
G75*
G03*
X14622000Y-9746000I-50000J0D01*
G01*
X14876000Y-4920000D02*
G75*
G03*
X14876000Y-4920000I-50000J0D01*
G01*
X15130000Y-4920000D02*
G75*
G03*
X15130000Y-4920000I-50000J0D01*
G01*
X15130000Y-9746000D02*
G75*
G03*
X15130000Y-9746000I-50000J0D01*
G01*
X15384000Y-4920000D02*
G75*
G03*
X15384000Y-4920000I-50000J0D01*
G01*
X15384000Y-9746000D02*
G75*
G03*
X15384000Y-9746000I-50000J0D01*
G01*
X15638000Y-4920000D02*
G75*
G03*
X15638000Y-4920000I-50000J0D01*
G01*
X15638000Y-9746000D02*
G75*
G03*
X15638000Y-9746000I-50000J0D01*
G01*
X15892000Y-4920000D02*
G75*
G03*
X15892000Y-4920000I-50000J0D01*
G01*
X15892000Y-9746000D02*
G75*
G03*
X15892000Y-9746000I-50000J0D01*
G01*
X16146000Y-4920000D02*
G75*
G03*
X16146000Y-4920000I-50000J0D01*
G01*
X16146000Y-9746000D02*
G75*
G03*
X16146000Y-9746000I-50000J0D01*
G01*
X16400000Y-4920000D02*
G75*
G03*
X16400000Y-4920000I-50000J0D01*
G01*
X16400000Y-9746000D02*
G75*
G03*
X16400000Y-9746000I-50000J0D01*
G01*
D14*
X10280000Y-9447000D02*
X10280000Y-9557000D01*
X10225000Y-9502000D02*
X10335000Y-9502000D01*
X10534000Y-9447000D02*
X10534000Y-9557000D01*
X10479000Y-9502000D02*
X10589000Y-9502000D01*
X10788000Y-9447000D02*
X10788000Y-9557000D01*
X10733000Y-9502000D02*
X10843000Y-9502000D01*
X11042000Y-9447000D02*
X11042000Y-9557000D01*
X10987000Y-9502000D02*
X11097000Y-9502000D01*
X16477000Y-6361600D02*
X16477000Y-6471600D01*
X16422000Y-6416600D02*
X16532000Y-6416600D01*
X16477000Y-6615600D02*
X16477000Y-6725600D01*
X16422000Y-6670600D02*
X16532000Y-6670600D01*
X16477000Y-6869600D02*
X16477000Y-6979600D01*
X16422000Y-6924600D02*
X16532000Y-6924600D01*
X16477000Y-7123600D02*
X16477000Y-7233600D01*
X16422000Y-7178600D02*
X16532000Y-7178600D01*
X16477000Y-7377600D02*
X16477000Y-7487600D01*
X16422000Y-7432600D02*
X16532000Y-7432600D01*
X16477000Y-7631600D02*
X16477000Y-7741600D01*
X16422000Y-7686600D02*
X16532000Y-7686600D01*
X16477000Y-7885600D02*
X16477000Y-7995600D01*
X16422000Y-7940600D02*
X16532000Y-7940600D01*
X16477000Y-8139600D02*
X16477000Y-8249600D01*
X16422000Y-8194600D02*
X16532000Y-8194600D01*
X16477000Y-8393600D02*
X16477000Y-8503600D01*
X16422000Y-8448600D02*
X16532000Y-8448600D01*
X16477000Y-8647600D02*
X16477000Y-8757600D01*
X16422000Y-8702600D02*
X16532000Y-8702600D01*
X16477000Y-8901600D02*
X16477000Y-9011600D01*
X16422000Y-8956600D02*
X16532000Y-8956600D01*
X16477000Y-9155600D02*
X16477000Y-9265600D01*
X16422000Y-9210600D02*
X16532000Y-9210600D01*
D11*
X10250119Y-10317976D02*
X10250119Y-10117976D01*
X10297738Y-10117976D01*
X10326310Y-10127500D01*
X10345357Y-10146548D01*
X10354881Y-10165595D01*
X10364405Y-10203690D01*
X10364405Y-10232262D01*
X10354881Y-10270357D01*
X10345357Y-10289405D01*
X10326310Y-10308452D01*
X10297738Y-10317976D01*
X10250119Y-10317976D01*
X10450119Y-10317976D02*
X10450119Y-10184643D01*
X10450119Y-10222738D02*
X10459643Y-10203690D01*
X10469167Y-10194167D01*
X10488214Y-10184643D01*
X10507262Y-10184643D01*
X10573929Y-10317976D02*
X10573929Y-10184643D01*
X10573929Y-10117976D02*
X10564405Y-10127500D01*
X10573929Y-10137024D01*
X10583452Y-10127500D01*
X10573929Y-10117976D01*
X10573929Y-10137024D01*
X10697738Y-10317976D02*
X10678690Y-10308452D01*
X10669167Y-10289405D01*
X10669167Y-10117976D01*
X10802500Y-10317976D02*
X10783452Y-10308452D01*
X10773929Y-10289405D01*
X10773929Y-10117976D01*
X11031071Y-10317976D02*
X11031071Y-10117976D01*
X11097738Y-10260833D01*
X11164405Y-10117976D01*
X11164405Y-10317976D01*
X11345357Y-10317976D02*
X11345357Y-10213214D01*
X11335833Y-10194167D01*
X11316786Y-10184643D01*
X11278690Y-10184643D01*
X11259643Y-10194167D01*
X11345357Y-10308452D02*
X11326309Y-10317976D01*
X11278690Y-10317976D01*
X11259643Y-10308452D01*
X11250119Y-10289405D01*
X11250119Y-10270357D01*
X11259643Y-10251310D01*
X11278690Y-10241786D01*
X11326309Y-10241786D01*
X11345357Y-10232262D01*
X11440595Y-10184643D02*
X11440595Y-10384643D01*
X11440595Y-10194167D02*
X11459643Y-10184643D01*
X11497738Y-10184643D01*
X11516786Y-10194167D01*
X11526309Y-10203690D01*
X11535833Y-10222738D01*
X11535833Y-10279881D01*
X11526309Y-10298929D01*
X11516786Y-10308452D01*
X11497738Y-10317976D01*
X11459643Y-10317976D01*
X11440595Y-10308452D01*
X11621548Y-10298929D02*
X11631071Y-10308452D01*
X11621548Y-10317976D01*
X11612024Y-10308452D01*
X11621548Y-10298929D01*
X11621548Y-10317976D01*
X11621548Y-10194167D02*
X11631071Y-10203690D01*
X11621548Y-10213214D01*
X11612024Y-10203690D01*
X11621548Y-10194167D01*
X11621548Y-10213214D01*
D12*
X9952500Y-10627500D02*
X9992500Y-10667500D01*
X9992500Y-10627500D02*
X9952500Y-10667500D01*
D11*
X10288214Y-10537976D02*
X10307262Y-10537976D01*
X10326310Y-10547500D01*
X10335833Y-10557024D01*
X10345357Y-10576071D01*
X10354881Y-10614167D01*
X10354881Y-10661786D01*
X10345357Y-10699881D01*
X10335833Y-10718929D01*
X10326310Y-10728452D01*
X10307262Y-10737976D01*
X10288214Y-10737976D01*
X10269167Y-10728452D01*
X10259643Y-10718929D01*
X10250119Y-10699881D01*
X10240595Y-10661786D01*
X10240595Y-10614167D01*
X10250119Y-10576071D01*
X10259643Y-10557024D01*
X10269167Y-10547500D01*
X10288214Y-10537976D01*
X10440595Y-10718929D02*
X10450119Y-10728452D01*
X10440595Y-10737976D01*
X10431071Y-10728452D01*
X10440595Y-10718929D01*
X10440595Y-10737976D01*
X10621548Y-10604643D02*
X10621548Y-10737976D01*
X10573929Y-10528452D02*
X10526310Y-10671310D01*
X10650119Y-10671310D01*
X10764405Y-10537976D02*
X10783452Y-10537976D01*
X10802500Y-10547500D01*
X10812024Y-10557024D01*
X10821548Y-10576071D01*
X10831071Y-10614167D01*
X10831071Y-10661786D01*
X10821548Y-10699881D01*
X10812024Y-10718929D01*
X10802500Y-10728452D01*
X10783452Y-10737976D01*
X10764405Y-10737976D01*
X10745357Y-10728452D01*
X10735833Y-10718929D01*
X10726310Y-10699881D01*
X10716786Y-10661786D01*
X10716786Y-10614167D01*
X10726310Y-10576071D01*
X10735833Y-10557024D01*
X10745357Y-10547500D01*
X10764405Y-10537976D01*
X10954881Y-10537976D02*
X10973929Y-10537976D01*
X10992976Y-10547500D01*
X11002500Y-10557024D01*
X11012024Y-10576071D01*
X11021548Y-10614167D01*
X11021548Y-10661786D01*
X11012024Y-10699881D01*
X11002500Y-10718929D01*
X10992976Y-10728452D01*
X10973929Y-10737976D01*
X10954881Y-10737976D01*
X10935833Y-10728452D01*
X10926310Y-10718929D01*
X10916786Y-10699881D01*
X10907262Y-10661786D01*
X10907262Y-10614167D01*
X10916786Y-10576071D01*
X10926310Y-10557024D01*
X10935833Y-10547500D01*
X10954881Y-10537976D01*
X11107262Y-10737976D02*
X11107262Y-10604643D01*
X11107262Y-10623690D02*
X11116786Y-10614167D01*
X11135833Y-10604643D01*
X11164405Y-10604643D01*
X11183452Y-10614167D01*
X11192976Y-10633214D01*
X11192976Y-10737976D01*
X11192976Y-10633214D02*
X11202500Y-10614167D01*
X11221548Y-10604643D01*
X11250119Y-10604643D01*
X11269167Y-10614167D01*
X11278690Y-10633214D01*
X11278690Y-10737976D01*
X11373928Y-10737976D02*
X11373928Y-10604643D01*
X11373928Y-10623690D02*
X11383452Y-10614167D01*
X11402500Y-10604643D01*
X11431071Y-10604643D01*
X11450119Y-10614167D01*
X11459643Y-10633214D01*
X11459643Y-10737976D01*
X11459643Y-10633214D02*
X11469167Y-10614167D01*
X11488214Y-10604643D01*
X11516786Y-10604643D01*
X11535833Y-10614167D01*
X11545357Y-10633214D01*
X11545357Y-10737976D01*
X11935833Y-10528452D02*
X11764405Y-10785595D01*
X12192976Y-10537976D02*
X12212024Y-10537976D01*
X12231071Y-10547500D01*
X12240595Y-10557024D01*
X12250119Y-10576071D01*
X12259643Y-10614167D01*
X12259643Y-10661786D01*
X12250119Y-10699881D01*
X12240595Y-10718929D01*
X12231071Y-10728452D01*
X12212024Y-10737976D01*
X12192976Y-10737976D01*
X12173928Y-10728452D01*
X12164405Y-10718929D01*
X12154881Y-10699881D01*
X12145357Y-10661786D01*
X12145357Y-10614167D01*
X12154881Y-10576071D01*
X12164405Y-10557024D01*
X12173928Y-10547500D01*
X12192976Y-10537976D01*
X12345357Y-10718929D02*
X12354881Y-10728452D01*
X12345357Y-10737976D01*
X12335833Y-10728452D01*
X12345357Y-10718929D01*
X12345357Y-10737976D01*
X12478690Y-10537976D02*
X12497738Y-10537976D01*
X12516786Y-10547500D01*
X12526309Y-10557024D01*
X12535833Y-10576071D01*
X12545357Y-10614167D01*
X12545357Y-10661786D01*
X12535833Y-10699881D01*
X12526309Y-10718929D01*
X12516786Y-10728452D01*
X12497738Y-10737976D01*
X12478690Y-10737976D01*
X12459643Y-10728452D01*
X12450119Y-10718929D01*
X12440595Y-10699881D01*
X12431071Y-10661786D01*
X12431071Y-10614167D01*
X12440595Y-10576071D01*
X12450119Y-10557024D01*
X12459643Y-10547500D01*
X12478690Y-10537976D01*
X12735833Y-10737976D02*
X12621548Y-10737976D01*
X12678690Y-10737976D02*
X12678690Y-10537976D01*
X12659643Y-10566548D01*
X12640595Y-10585595D01*
X12621548Y-10595119D01*
X12916786Y-10537976D02*
X12821548Y-10537976D01*
X12812024Y-10633214D01*
X12821548Y-10623690D01*
X12840595Y-10614167D01*
X12888214Y-10614167D01*
X12907262Y-10623690D01*
X12916786Y-10633214D01*
X12926309Y-10652262D01*
X12926309Y-10699881D01*
X12916786Y-10718929D01*
X12907262Y-10728452D01*
X12888214Y-10737976D01*
X12840595Y-10737976D01*
X12821548Y-10728452D01*
X12812024Y-10718929D01*
X12992976Y-10537976D02*
X13126309Y-10537976D01*
X13040595Y-10737976D01*
X13192976Y-10537976D02*
X13192976Y-10576071D01*
X13269167Y-10537976D02*
X13269167Y-10576071D01*
X13564405Y-10814167D02*
X13554881Y-10804643D01*
X13535833Y-10776071D01*
X13526309Y-10757024D01*
X13516786Y-10728452D01*
X13507262Y-10680833D01*
X13507262Y-10642738D01*
X13516786Y-10595119D01*
X13526309Y-10566548D01*
X13535833Y-10547500D01*
X13554881Y-10518929D01*
X13564405Y-10509405D01*
X13745357Y-10737976D02*
X13631071Y-10737976D01*
X13688214Y-10737976D02*
X13688214Y-10537976D01*
X13669167Y-10566548D01*
X13650119Y-10585595D01*
X13631071Y-10595119D01*
X13935833Y-10737976D02*
X13821548Y-10737976D01*
X13878690Y-10737976D02*
X13878690Y-10537976D01*
X13859643Y-10566548D01*
X13840595Y-10585595D01*
X13821548Y-10595119D01*
X14173928Y-10737976D02*
X14173928Y-10537976D01*
X14259643Y-10737976D02*
X14259643Y-10633214D01*
X14250119Y-10614167D01*
X14231071Y-10604643D01*
X14202500Y-10604643D01*
X14183452Y-10614167D01*
X14173928Y-10623690D01*
X14383452Y-10737976D02*
X14364405Y-10728452D01*
X14354881Y-10718929D01*
X14345357Y-10699881D01*
X14345357Y-10642738D01*
X14354881Y-10623690D01*
X14364405Y-10614167D01*
X14383452Y-10604643D01*
X14412024Y-10604643D01*
X14431071Y-10614167D01*
X14440595Y-10623690D01*
X14450119Y-10642738D01*
X14450119Y-10699881D01*
X14440595Y-10718929D01*
X14431071Y-10728452D01*
X14412024Y-10737976D01*
X14383452Y-10737976D01*
X14564405Y-10737976D02*
X14545357Y-10728452D01*
X14535833Y-10709405D01*
X14535833Y-10537976D01*
X14716786Y-10728452D02*
X14697738Y-10737976D01*
X14659643Y-10737976D01*
X14640595Y-10728452D01*
X14631071Y-10709405D01*
X14631071Y-10633214D01*
X14640595Y-10614167D01*
X14659643Y-10604643D01*
X14697738Y-10604643D01*
X14716786Y-10614167D01*
X14726309Y-10633214D01*
X14726309Y-10652262D01*
X14631071Y-10671310D01*
X14802500Y-10728452D02*
X14821548Y-10737976D01*
X14859643Y-10737976D01*
X14878690Y-10728452D01*
X14888214Y-10709405D01*
X14888214Y-10699881D01*
X14878690Y-10680833D01*
X14859643Y-10671310D01*
X14831071Y-10671310D01*
X14812024Y-10661786D01*
X14802500Y-10642738D01*
X14802500Y-10633214D01*
X14812024Y-10614167D01*
X14831071Y-10604643D01*
X14859643Y-10604643D01*
X14878690Y-10614167D01*
X14954881Y-10814167D02*
X14964405Y-10804643D01*
X14983452Y-10776071D01*
X14992976Y-10757024D01*
X15002500Y-10728452D01*
X15012024Y-10680833D01*
X15012024Y-10642738D01*
X15002500Y-10595119D01*
X14992976Y-10566548D01*
X14983452Y-10547500D01*
X14964405Y-10518929D01*
X14954881Y-10509405D01*
D13*
X9992500Y-10911500D02*
G75*
G03*
X9992500Y-10911500I-50000J0D01*
G01*
D11*
X10354881Y-11001976D02*
X10240595Y-11001976D01*
X10297738Y-11001976D02*
X10297738Y-10801976D01*
X10278690Y-10830548D01*
X10259643Y-10849595D01*
X10240595Y-10859119D01*
X10440595Y-10982929D02*
X10450119Y-10992452D01*
X10440595Y-11001976D01*
X10431071Y-10992452D01*
X10440595Y-10982929D01*
X10440595Y-11001976D01*
X10573929Y-10801976D02*
X10592976Y-10801976D01*
X10612024Y-10811500D01*
X10621548Y-10821024D01*
X10631071Y-10840071D01*
X10640595Y-10878167D01*
X10640595Y-10925786D01*
X10631071Y-10963881D01*
X10621548Y-10982929D01*
X10612024Y-10992452D01*
X10592976Y-11001976D01*
X10573929Y-11001976D01*
X10554881Y-10992452D01*
X10545357Y-10982929D01*
X10535833Y-10963881D01*
X10526310Y-10925786D01*
X10526310Y-10878167D01*
X10535833Y-10840071D01*
X10545357Y-10821024D01*
X10554881Y-10811500D01*
X10573929Y-10801976D01*
X10764405Y-10801976D02*
X10783452Y-10801976D01*
X10802500Y-10811500D01*
X10812024Y-10821024D01*
X10821548Y-10840071D01*
X10831071Y-10878167D01*
X10831071Y-10925786D01*
X10821548Y-10963881D01*
X10812024Y-10982929D01*
X10802500Y-10992452D01*
X10783452Y-11001976D01*
X10764405Y-11001976D01*
X10745357Y-10992452D01*
X10735833Y-10982929D01*
X10726310Y-10963881D01*
X10716786Y-10925786D01*
X10716786Y-10878167D01*
X10726310Y-10840071D01*
X10735833Y-10821024D01*
X10745357Y-10811500D01*
X10764405Y-10801976D01*
X10954881Y-10801976D02*
X10973929Y-10801976D01*
X10992976Y-10811500D01*
X11002500Y-10821024D01*
X11012024Y-10840071D01*
X11021548Y-10878167D01*
X11021548Y-10925786D01*
X11012024Y-10963881D01*
X11002500Y-10982929D01*
X10992976Y-10992452D01*
X10973929Y-11001976D01*
X10954881Y-11001976D01*
X10935833Y-10992452D01*
X10926310Y-10982929D01*
X10916786Y-10963881D01*
X10907262Y-10925786D01*
X10907262Y-10878167D01*
X10916786Y-10840071D01*
X10926310Y-10821024D01*
X10935833Y-10811500D01*
X10954881Y-10801976D01*
X11107262Y-11001976D02*
X11107262Y-10868643D01*
X11107262Y-10887690D02*
X11116786Y-10878167D01*
X11135833Y-10868643D01*
X11164405Y-10868643D01*
X11183452Y-10878167D01*
X11192976Y-10897214D01*
X11192976Y-11001976D01*
X11192976Y-10897214D02*
X11202500Y-10878167D01*
X11221548Y-10868643D01*
X11250119Y-10868643D01*
X11269167Y-10878167D01*
X11278690Y-10897214D01*
X11278690Y-11001976D01*
X11373928Y-11001976D02*
X11373928Y-10868643D01*
X11373928Y-10887690D02*
X11383452Y-10878167D01*
X11402500Y-10868643D01*
X11431071Y-10868643D01*
X11450119Y-10878167D01*
X11459643Y-10897214D01*
X11459643Y-11001976D01*
X11459643Y-10897214D02*
X11469167Y-10878167D01*
X11488214Y-10868643D01*
X11516786Y-10868643D01*
X11535833Y-10878167D01*
X11545357Y-10897214D01*
X11545357Y-11001976D01*
X11935833Y-10792452D02*
X11764405Y-11049595D01*
X12192976Y-10801976D02*
X12212024Y-10801976D01*
X12231071Y-10811500D01*
X12240595Y-10821024D01*
X12250119Y-10840071D01*
X12259643Y-10878167D01*
X12259643Y-10925786D01*
X12250119Y-10963881D01*
X12240595Y-10982929D01*
X12231071Y-10992452D01*
X12212024Y-11001976D01*
X12192976Y-11001976D01*
X12173928Y-10992452D01*
X12164405Y-10982929D01*
X12154881Y-10963881D01*
X12145357Y-10925786D01*
X12145357Y-10878167D01*
X12154881Y-10840071D01*
X12164405Y-10821024D01*
X12173928Y-10811500D01*
X12192976Y-10801976D01*
X12345357Y-10982929D02*
X12354881Y-10992452D01*
X12345357Y-11001976D01*
X12335833Y-10992452D01*
X12345357Y-10982929D01*
X12345357Y-11001976D01*
X12478690Y-10801976D02*
X12497738Y-10801976D01*
X12516786Y-10811500D01*
X12526309Y-10821024D01*
X12535833Y-10840071D01*
X12545357Y-10878167D01*
X12545357Y-10925786D01*
X12535833Y-10963881D01*
X12526309Y-10982929D01*
X12516786Y-10992452D01*
X12497738Y-11001976D01*
X12478690Y-11001976D01*
X12459643Y-10992452D01*
X12450119Y-10982929D01*
X12440595Y-10963881D01*
X12431071Y-10925786D01*
X12431071Y-10878167D01*
X12440595Y-10840071D01*
X12450119Y-10821024D01*
X12459643Y-10811500D01*
X12478690Y-10801976D01*
X12612024Y-10801976D02*
X12735833Y-10801976D01*
X12669167Y-10878167D01*
X12697738Y-10878167D01*
X12716786Y-10887690D01*
X12726309Y-10897214D01*
X12735833Y-10916262D01*
X12735833Y-10963881D01*
X12726309Y-10982929D01*
X12716786Y-10992452D01*
X12697738Y-11001976D01*
X12640595Y-11001976D01*
X12621548Y-10992452D01*
X12612024Y-10982929D01*
X12831071Y-11001976D02*
X12869167Y-11001976D01*
X12888214Y-10992452D01*
X12897738Y-10982929D01*
X12916786Y-10954357D01*
X12926309Y-10916262D01*
X12926309Y-10840071D01*
X12916786Y-10821024D01*
X12907262Y-10811500D01*
X12888214Y-10801976D01*
X12850119Y-10801976D01*
X12831071Y-10811500D01*
X12821548Y-10821024D01*
X12812024Y-10840071D01*
X12812024Y-10887690D01*
X12821548Y-10906738D01*
X12831071Y-10916262D01*
X12850119Y-10925786D01*
X12888214Y-10925786D01*
X12907262Y-10916262D01*
X12916786Y-10906738D01*
X12926309Y-10887690D01*
X13097738Y-10868643D02*
X13097738Y-11001976D01*
X13050119Y-10792452D02*
X13002500Y-10935310D01*
X13126309Y-10935310D01*
X13192976Y-10801976D02*
X13192976Y-10840071D01*
X13269167Y-10801976D02*
X13269167Y-10840071D01*
X13564405Y-11078167D02*
X13554881Y-11068643D01*
X13535833Y-11040071D01*
X13526309Y-11021024D01*
X13516786Y-10992452D01*
X13507262Y-10944833D01*
X13507262Y-10906738D01*
X13516786Y-10859119D01*
X13526309Y-10830548D01*
X13535833Y-10811500D01*
X13554881Y-10782929D01*
X13564405Y-10773405D01*
X13726309Y-10868643D02*
X13726309Y-11001976D01*
X13678690Y-10792452D02*
X13631071Y-10935310D01*
X13754881Y-10935310D01*
X13935833Y-11001976D02*
X13821548Y-11001976D01*
X13878690Y-11001976D02*
X13878690Y-10801976D01*
X13859643Y-10830548D01*
X13840595Y-10849595D01*
X13821548Y-10859119D01*
X14173928Y-11001976D02*
X14173928Y-10801976D01*
X14259643Y-11001976D02*
X14259643Y-10897214D01*
X14250119Y-10878167D01*
X14231071Y-10868643D01*
X14202500Y-10868643D01*
X14183452Y-10878167D01*
X14173928Y-10887690D01*
X14383452Y-11001976D02*
X14364405Y-10992452D01*
X14354881Y-10982929D01*
X14345357Y-10963881D01*
X14345357Y-10906738D01*
X14354881Y-10887690D01*
X14364405Y-10878167D01*
X14383452Y-10868643D01*
X14412024Y-10868643D01*
X14431071Y-10878167D01*
X14440595Y-10887690D01*
X14450119Y-10906738D01*
X14450119Y-10963881D01*
X14440595Y-10982929D01*
X14431071Y-10992452D01*
X14412024Y-11001976D01*
X14383452Y-11001976D01*
X14564405Y-11001976D02*
X14545357Y-10992452D01*
X14535833Y-10973405D01*
X14535833Y-10801976D01*
X14716786Y-10992452D02*
X14697738Y-11001976D01*
X14659643Y-11001976D01*
X14640595Y-10992452D01*
X14631071Y-10973405D01*
X14631071Y-10897214D01*
X14640595Y-10878167D01*
X14659643Y-10868643D01*
X14697738Y-10868643D01*
X14716786Y-10878167D01*
X14726309Y-10897214D01*
X14726309Y-10916262D01*
X14631071Y-10935310D01*
X14802500Y-10992452D02*
X14821548Y-11001976D01*
X14859643Y-11001976D01*
X14878690Y-10992452D01*
X14888214Y-10973405D01*
X14888214Y-10963881D01*
X14878690Y-10944833D01*
X14859643Y-10935310D01*
X14831071Y-10935310D01*
X14812024Y-10925786D01*
X14802500Y-10906738D01*
X14802500Y-10897214D01*
X14812024Y-10878167D01*
X14831071Y-10868643D01*
X14859643Y-10868643D01*
X14878690Y-10878167D01*
X14954881Y-11078167D02*
X14964405Y-11068643D01*
X14983452Y-11040071D01*
X14992976Y-11021024D01*
X15002500Y-10992452D01*
X15012024Y-10944833D01*
X15012024Y-10906738D01*
X15002500Y-10859119D01*
X14992976Y-10830548D01*
X14983452Y-10811500D01*
X14964405Y-10782929D01*
X14954881Y-10773405D01*
D14*
X9937500Y-11120500D02*
X9937500Y-11230500D01*
X9882500Y-11175500D02*
X9992500Y-11175500D01*
D11*
X10354881Y-11265976D02*
X10240595Y-11265976D01*
X10297738Y-11265976D02*
X10297738Y-11065976D01*
X10278690Y-11094548D01*
X10259643Y-11113595D01*
X10240595Y-11123119D01*
X10440595Y-11246928D02*
X10450119Y-11256452D01*
X10440595Y-11265976D01*
X10431071Y-11256452D01*
X10440595Y-11246928D01*
X10440595Y-11265976D01*
X10640595Y-11265976D02*
X10526310Y-11265976D01*
X10583452Y-11265976D02*
X10583452Y-11065976D01*
X10564405Y-11094548D01*
X10545357Y-11113595D01*
X10526310Y-11123119D01*
X10764405Y-11065976D02*
X10783452Y-11065976D01*
X10802500Y-11075500D01*
X10812024Y-11085024D01*
X10821548Y-11104071D01*
X10831071Y-11142167D01*
X10831071Y-11189786D01*
X10821548Y-11227881D01*
X10812024Y-11246928D01*
X10802500Y-11256452D01*
X10783452Y-11265976D01*
X10764405Y-11265976D01*
X10745357Y-11256452D01*
X10735833Y-11246928D01*
X10726310Y-11227881D01*
X10716786Y-11189786D01*
X10716786Y-11142167D01*
X10726310Y-11104071D01*
X10735833Y-11085024D01*
X10745357Y-11075500D01*
X10764405Y-11065976D01*
X10954881Y-11065976D02*
X10973929Y-11065976D01*
X10992976Y-11075500D01*
X11002500Y-11085024D01*
X11012024Y-11104071D01*
X11021548Y-11142167D01*
X11021548Y-11189786D01*
X11012024Y-11227881D01*
X11002500Y-11246928D01*
X10992976Y-11256452D01*
X10973929Y-11265976D01*
X10954881Y-11265976D01*
X10935833Y-11256452D01*
X10926310Y-11246928D01*
X10916786Y-11227881D01*
X10907262Y-11189786D01*
X10907262Y-11142167D01*
X10916786Y-11104071D01*
X10926310Y-11085024D01*
X10935833Y-11075500D01*
X10954881Y-11065976D01*
X11107262Y-11265976D02*
X11107262Y-11132643D01*
X11107262Y-11151690D02*
X11116786Y-11142167D01*
X11135833Y-11132643D01*
X11164405Y-11132643D01*
X11183452Y-11142167D01*
X11192976Y-11161214D01*
X11192976Y-11265976D01*
X11192976Y-11161214D02*
X11202500Y-11142167D01*
X11221548Y-11132643D01*
X11250119Y-11132643D01*
X11269167Y-11142167D01*
X11278690Y-11161214D01*
X11278690Y-11265976D01*
X11373928Y-11265976D02*
X11373928Y-11132643D01*
X11373928Y-11151690D02*
X11383452Y-11142167D01*
X11402500Y-11132643D01*
X11431071Y-11132643D01*
X11450119Y-11142167D01*
X11459643Y-11161214D01*
X11459643Y-11265976D01*
X11459643Y-11161214D02*
X11469167Y-11142167D01*
X11488214Y-11132643D01*
X11516786Y-11132643D01*
X11535833Y-11142167D01*
X11545357Y-11161214D01*
X11545357Y-11265976D01*
X11935833Y-11056452D02*
X11764405Y-11313595D01*
X12192976Y-11065976D02*
X12212024Y-11065976D01*
X12231071Y-11075500D01*
X12240595Y-11085024D01*
X12250119Y-11104071D01*
X12259643Y-11142167D01*
X12259643Y-11189786D01*
X12250119Y-11227881D01*
X12240595Y-11246928D01*
X12231071Y-11256452D01*
X12212024Y-11265976D01*
X12192976Y-11265976D01*
X12173928Y-11256452D01*
X12164405Y-11246928D01*
X12154881Y-11227881D01*
X12145357Y-11189786D01*
X12145357Y-11142167D01*
X12154881Y-11104071D01*
X12164405Y-11085024D01*
X12173928Y-11075500D01*
X12192976Y-11065976D01*
X12345357Y-11246928D02*
X12354881Y-11256452D01*
X12345357Y-11265976D01*
X12335833Y-11256452D01*
X12345357Y-11246928D01*
X12345357Y-11265976D01*
X12478690Y-11065976D02*
X12497738Y-11065976D01*
X12516786Y-11075500D01*
X12526309Y-11085024D01*
X12535833Y-11104071D01*
X12545357Y-11142167D01*
X12545357Y-11189786D01*
X12535833Y-11227881D01*
X12526309Y-11246928D01*
X12516786Y-11256452D01*
X12497738Y-11265976D01*
X12478690Y-11265976D01*
X12459643Y-11256452D01*
X12450119Y-11246928D01*
X12440595Y-11227881D01*
X12431071Y-11189786D01*
X12431071Y-11142167D01*
X12440595Y-11104071D01*
X12450119Y-11085024D01*
X12459643Y-11075500D01*
X12478690Y-11065976D01*
X12716786Y-11132643D02*
X12716786Y-11265976D01*
X12669167Y-11056452D02*
X12621548Y-11199309D01*
X12745357Y-11199309D01*
X12802500Y-11065976D02*
X12926309Y-11065976D01*
X12859643Y-11142167D01*
X12888214Y-11142167D01*
X12907262Y-11151690D01*
X12916786Y-11161214D01*
X12926309Y-11180262D01*
X12926309Y-11227881D01*
X12916786Y-11246928D01*
X12907262Y-11256452D01*
X12888214Y-11265976D01*
X12831071Y-11265976D01*
X12812024Y-11256452D01*
X12802500Y-11246928D01*
X12992976Y-11065976D02*
X13116786Y-11065976D01*
X13050119Y-11142167D01*
X13078690Y-11142167D01*
X13097738Y-11151690D01*
X13107262Y-11161214D01*
X13116786Y-11180262D01*
X13116786Y-11227881D01*
X13107262Y-11246928D01*
X13097738Y-11256452D01*
X13078690Y-11265976D01*
X13021548Y-11265976D01*
X13002500Y-11256452D01*
X12992976Y-11246928D01*
X13192976Y-11065976D02*
X13192976Y-11104071D01*
X13269167Y-11065976D02*
X13269167Y-11104071D01*
X13564405Y-11342167D02*
X13554881Y-11332643D01*
X13535833Y-11304071D01*
X13526309Y-11285024D01*
X13516786Y-11256452D01*
X13507262Y-11208833D01*
X13507262Y-11170738D01*
X13516786Y-11123119D01*
X13526309Y-11094548D01*
X13535833Y-11075500D01*
X13554881Y-11046929D01*
X13564405Y-11037405D01*
X13745357Y-11265976D02*
X13631071Y-11265976D01*
X13688214Y-11265976D02*
X13688214Y-11065976D01*
X13669167Y-11094548D01*
X13650119Y-11113595D01*
X13631071Y-11123119D01*
X13916786Y-11065976D02*
X13878690Y-11065976D01*
X13859643Y-11075500D01*
X13850119Y-11085024D01*
X13831071Y-11113595D01*
X13821548Y-11151690D01*
X13821548Y-11227881D01*
X13831071Y-11246928D01*
X13840595Y-11256452D01*
X13859643Y-11265976D01*
X13897738Y-11265976D01*
X13916786Y-11256452D01*
X13926309Y-11246928D01*
X13935833Y-11227881D01*
X13935833Y-11180262D01*
X13926309Y-11161214D01*
X13916786Y-11151690D01*
X13897738Y-11142167D01*
X13859643Y-11142167D01*
X13840595Y-11151690D01*
X13831071Y-11161214D01*
X13821548Y-11180262D01*
X14173928Y-11265976D02*
X14173928Y-11065976D01*
X14259643Y-11265976D02*
X14259643Y-11161214D01*
X14250119Y-11142167D01*
X14231071Y-11132643D01*
X14202500Y-11132643D01*
X14183452Y-11142167D01*
X14173928Y-11151690D01*
X14383452Y-11265976D02*
X14364405Y-11256452D01*
X14354881Y-11246928D01*
X14345357Y-11227881D01*
X14345357Y-11170738D01*
X14354881Y-11151690D01*
X14364405Y-11142167D01*
X14383452Y-11132643D01*
X14412024Y-11132643D01*
X14431071Y-11142167D01*
X14440595Y-11151690D01*
X14450119Y-11170738D01*
X14450119Y-11227881D01*
X14440595Y-11246928D01*
X14431071Y-11256452D01*
X14412024Y-11265976D01*
X14383452Y-11265976D01*
X14564405Y-11265976D02*
X14545357Y-11256452D01*
X14535833Y-11237405D01*
X14535833Y-11065976D01*
X14716786Y-11256452D02*
X14697738Y-11265976D01*
X14659643Y-11265976D01*
X14640595Y-11256452D01*
X14631071Y-11237405D01*
X14631071Y-11161214D01*
X14640595Y-11142167D01*
X14659643Y-11132643D01*
X14697738Y-11132643D01*
X14716786Y-11142167D01*
X14726309Y-11161214D01*
X14726309Y-11180262D01*
X14631071Y-11199309D01*
X14802500Y-11256452D02*
X14821548Y-11265976D01*
X14859643Y-11265976D01*
X14878690Y-11256452D01*
X14888214Y-11237405D01*
X14888214Y-11227881D01*
X14878690Y-11208833D01*
X14859643Y-11199309D01*
X14831071Y-11199309D01*
X14812024Y-11189786D01*
X14802500Y-11170738D01*
X14802500Y-11161214D01*
X14812024Y-11142167D01*
X14831071Y-11132643D01*
X14859643Y-11132643D01*
X14878690Y-11142167D01*
X14954881Y-11342167D02*
X14964405Y-11332643D01*
X14983452Y-11304071D01*
X14992976Y-11285024D01*
X15002500Y-11256452D01*
X15012024Y-11208833D01*
X15012024Y-11170738D01*
X15002500Y-11123119D01*
X14992976Y-11094548D01*
X14983452Y-11075500D01*
X14964405Y-11046929D01*
X14954881Y-11037405D01*
M02*
