G04 #@! TF.GenerationSoftware,KiCad,Pcbnew,6.0.11-2627ca5db0~126~ubuntu22.04.1*
G04 #@! TF.CreationDate,2024-01-25T08:43:18+01:00*
G04 #@! TF.ProjectId,lmwb_ds18b20,6c6d7762-5f64-4733-9138-6232302e6b69,rev?*
G04 #@! TF.SameCoordinates,Original*
G04 #@! TF.FileFunction,Paste,Top*
G04 #@! TF.FilePolarity,Positive*
%FSLAX46Y46*%
G04 Gerber Fmt 4.6, Leading zero omitted, Abs format (unit mm)*
G04 Created by KiCad (PCBNEW 6.0.11-2627ca5db0~126~ubuntu22.04.1) date 2024-01-25 08:43:18*
%MOMM*%
%LPD*%
G01*
G04 APERTURE LIST*
G04 Aperture macros list*
%AMRoundRect*
0 Rectangle with rounded corners*
0 $1 Rounding radius*
0 $2 $3 $4 $5 $6 $7 $8 $9 X,Y pos of 4 corners*
0 Add a 4 corners polygon primitive as box body*
4,1,4,$2,$3,$4,$5,$6,$7,$8,$9,$2,$3,0*
0 Add four circle primitives for the rounded corners*
1,1,$1+$1,$2,$3*
1,1,$1+$1,$4,$5*
1,1,$1+$1,$6,$7*
1,1,$1+$1,$8,$9*
0 Add four rect primitives between the rounded corners*
20,1,$1+$1,$2,$3,$4,$5,0*
20,1,$1+$1,$4,$5,$6,$7,0*
20,1,$1+$1,$6,$7,$8,$9,0*
20,1,$1+$1,$8,$9,$2,$3,0*%
G04 Aperture macros list end*
%ADD10RoundRect,0.250000X0.625000X-0.400000X0.625000X0.400000X-0.625000X0.400000X-0.625000X-0.400000X0*%
%ADD11RoundRect,0.250001X-1.074999X0.462499X-1.074999X-0.462499X1.074999X-0.462499X1.074999X0.462499X0*%
%ADD12RoundRect,0.250000X-0.625000X0.400000X-0.625000X-0.400000X0.625000X-0.400000X0.625000X0.400000X0*%
%ADD13RoundRect,0.150000X0.150000X-0.587500X0.150000X0.587500X-0.150000X0.587500X-0.150000X-0.587500X0*%
%ADD14R,2.500000X1.800000*%
%ADD15RoundRect,0.150000X0.825000X0.150000X-0.825000X0.150000X-0.825000X-0.150000X0.825000X-0.150000X0*%
%ADD16RoundRect,0.250000X-0.400000X-0.625000X0.400000X-0.625000X0.400000X0.625000X-0.400000X0.625000X0*%
%ADD17RoundRect,0.250000X0.650000X-0.412500X0.650000X0.412500X-0.650000X0.412500X-0.650000X-0.412500X0*%
%ADD18RoundRect,0.150000X-0.150000X0.587500X-0.150000X-0.587500X0.150000X-0.587500X0.150000X0.587500X0*%
%ADD19RoundRect,0.250000X0.412500X0.650000X-0.412500X0.650000X-0.412500X-0.650000X0.412500X-0.650000X0*%
%ADD20RoundRect,0.250000X-0.412500X-0.650000X0.412500X-0.650000X0.412500X0.650000X-0.412500X0.650000X0*%
%ADD21RoundRect,0.085500X0.769500X0.994500X-0.769500X0.994500X-0.769500X-0.994500X0.769500X-0.994500X0*%
%ADD22RoundRect,0.250000X0.400000X0.625000X-0.400000X0.625000X-0.400000X-0.625000X0.400000X-0.625000X0*%
%ADD23RoundRect,0.250000X-1.950000X-1.000000X1.950000X-1.000000X1.950000X1.000000X-1.950000X1.000000X0*%
G04 APERTURE END LIST*
D10*
X146050000Y-85624000D03*
X146050000Y-82524000D03*
D11*
X146050000Y-88428500D03*
X146050000Y-91403500D03*
D12*
X135560000Y-58090001D03*
X135560000Y-61190001D03*
D10*
X143510000Y-85624000D03*
X143510000Y-82524000D03*
X106172000Y-55398000D03*
X106172000Y-52298000D03*
D13*
X154605000Y-56817500D03*
X156505000Y-56817500D03*
X155555000Y-54942500D03*
D14*
X112890000Y-87300000D03*
X108890000Y-87300000D03*
D15*
X131685000Y-73965000D03*
X131685000Y-72695000D03*
X131685000Y-71425000D03*
X131685000Y-70155000D03*
X126735000Y-70155000D03*
X126735000Y-71425000D03*
X126735000Y-72695000D03*
X126735000Y-73965000D03*
D10*
X151130000Y-57430000D03*
X151130000Y-54330000D03*
D13*
X154930000Y-61897500D03*
X156830000Y-61897500D03*
X155880000Y-60022500D03*
D12*
X139370000Y-58090001D03*
X139370000Y-61190001D03*
D16*
X127609000Y-76581000D03*
X130709000Y-76581000D03*
D17*
X135382000Y-73698500D03*
X135382000Y-70573500D03*
D11*
X141732000Y-88428500D03*
X141732000Y-91403500D03*
D18*
X104760000Y-86362500D03*
X102860000Y-86362500D03*
X103810000Y-88237500D03*
D12*
X158750000Y-54330000D03*
X158750000Y-57430000D03*
D19*
X145834500Y-94234000D03*
X142709500Y-94234000D03*
D20*
X117817500Y-87630000D03*
X120942500Y-87630000D03*
D21*
X105031000Y-79890000D03*
X105031000Y-75050000D03*
X102741000Y-75050000D03*
X102741000Y-79890000D03*
D10*
X108966000Y-55398000D03*
X108966000Y-52298000D03*
D22*
X105940001Y-83490000D03*
X102840001Y-83490000D03*
D12*
X151130000Y-60680000D03*
X151130000Y-63780000D03*
D23*
X126864000Y-87376000D03*
X135264000Y-87376000D03*
M02*
