M48
; DRILL file {KiCad 6.0.11-2627ca5db0~126~ubuntu22.04.1} date Thu 25 Jan 2024 08:43:25 CET
; FORMAT={-:-/ absolute / metric / decimal}
; #@! TF.CreationDate,2024-01-25T08:43:25+01:00
; #@! TF.GenerationSoftware,Kicad,Pcbnew,6.0.11-2627ca5db0~126~ubuntu22.04.1
; #@! TF.FileFunction,Plated,1,2,PTH
FMAT,2
METRIC
; #@! TA.AperFunction,Plated,PTH,ViaDrill
T1C0.400
; #@! TA.AperFunction,Plated,PTH,ComponentDrill
T2C1.000
; #@! TA.AperFunction,Plated,PTH,ComponentDrill
T3C1.100
%
G90
G05
T1
X103.759Y-89.789
X122.682Y-87.63
X129.159Y-76.581
X135.128Y-89.408
X135.128Y-90.17
X135.382Y-72.136
X143.51Y-84.074
X146.05Y-84.074
X149.352Y-54.61
X156.718Y-58.42
X162.814Y-89.662
T2
X106.35Y-49.2
X108.89Y-49.2
X109.525Y-77.14
X109.525Y-79.68
X111.43Y-49.2
X113.97Y-49.2
X116.603Y-97.127
X118.796Y-49.2
X119.143Y-97.127
X121.336Y-49.2
X121.683Y-97.127
X123.876Y-49.2
X126.416Y-49.2
X127.94Y-97.46
X128.956Y-49.2
X130.48Y-97.46
X131.496Y-49.2
X133.02Y-97.46
X134.036Y-49.2
X135.56Y-97.46
X136.576Y-49.2
X138.1Y-97.46
X139.116Y-49.2
X140.64Y-97.46
X141.656Y-49.2
X143.18Y-97.46
X145.72Y-49.2
X145.72Y-97.46
X148.26Y-49.2
X150.8Y-49.2
X150.8Y-97.46
X153.34Y-49.2
X153.34Y-97.46
X155.88Y-49.2
X155.88Y-97.46
X158.42Y-49.2
X158.42Y-97.46
X160.96Y-49.2
X160.96Y-97.46
X163.5Y-49.2
X163.5Y-97.46
T3
X102.8Y-95.02
X105.34Y-95.02
X107.88Y-95.02
X110.42Y-95.02
X164.77Y-64.166
X164.77Y-66.706
X164.77Y-69.246
X164.77Y-71.786
X164.77Y-74.326
X164.77Y-76.866
X164.77Y-79.406
X164.77Y-81.946
X164.77Y-84.486
X164.77Y-87.026
X164.77Y-89.566
X164.77Y-92.106
T0
M30
