G04 #@! TF.GenerationSoftware,KiCad,Pcbnew,6.0.11-2627ca5db0~126~ubuntu22.04.1*
G04 #@! TF.CreationDate,2024-01-25T08:43:18+01:00*
G04 #@! TF.ProjectId,lmwb_ds18b20,6c6d7762-5f64-4733-9138-6232302e6b69,rev?*
G04 #@! TF.SameCoordinates,Original*
G04 #@! TF.FileFunction,Legend,Top*
G04 #@! TF.FilePolarity,Positive*
%FSLAX46Y46*%
G04 Gerber Fmt 4.6, Leading zero omitted, Abs format (unit mm)*
G04 Created by KiCad (PCBNEW 6.0.11-2627ca5db0~126~ubuntu22.04.1) date 2024-01-25 08:43:18*
%MOMM*%
%LPD*%
G01*
G04 APERTURE LIST*
G04 Aperture macros list*
%AMRoundRect*
0 Rectangle with rounded corners*
0 $1 Rounding radius*
0 $2 $3 $4 $5 $6 $7 $8 $9 X,Y pos of 4 corners*
0 Add a 4 corners polygon primitive as box body*
4,1,4,$2,$3,$4,$5,$6,$7,$8,$9,$2,$3,0*
0 Add four circle primitives for the rounded corners*
1,1,$1+$1,$2,$3*
1,1,$1+$1,$4,$5*
1,1,$1+$1,$6,$7*
1,1,$1+$1,$8,$9*
0 Add four rect primitives between the rounded corners*
20,1,$1+$1,$2,$3,$4,$5,0*
20,1,$1+$1,$4,$5,$6,$7,0*
20,1,$1+$1,$6,$7,$8,$9,0*
20,1,$1+$1,$8,$9,$2,$3,0*%
G04 Aperture macros list end*
%ADD10C,0.100000*%
%ADD11C,0.150000*%
%ADD12C,0.120000*%
%ADD13R,1.700000X1.700000*%
%ADD14O,1.700000X1.700000*%
%ADD15RoundRect,0.250000X0.625000X-0.400000X0.625000X0.400000X-0.625000X0.400000X-0.625000X-0.400000X0*%
%ADD16RoundRect,0.250001X-1.074999X0.462499X-1.074999X-0.462499X1.074999X-0.462499X1.074999X0.462499X0*%
%ADD17RoundRect,0.250000X-0.625000X0.400000X-0.625000X-0.400000X0.625000X-0.400000X0.625000X0.400000X0*%
%ADD18R,2.200000X2.200000*%
%ADD19C,2.200000*%
%ADD20RoundRect,0.150000X0.150000X-0.587500X0.150000X0.587500X-0.150000X0.587500X-0.150000X-0.587500X0*%
%ADD21R,2.500000X1.800000*%
%ADD22RoundRect,0.150000X0.825000X0.150000X-0.825000X0.150000X-0.825000X-0.150000X0.825000X-0.150000X0*%
%ADD23RoundRect,0.250000X-0.400000X-0.625000X0.400000X-0.625000X0.400000X0.625000X-0.400000X0.625000X0*%
%ADD24RoundRect,0.250000X0.650000X-0.412500X0.650000X0.412500X-0.650000X0.412500X-0.650000X-0.412500X0*%
%ADD25RoundRect,0.150000X-0.150000X0.587500X-0.150000X-0.587500X0.150000X-0.587500X0.150000X0.587500X0*%
%ADD26RoundRect,0.250000X0.412500X0.650000X-0.412500X0.650000X-0.412500X-0.650000X0.412500X-0.650000X0*%
%ADD27RoundRect,0.250000X-0.412500X-0.650000X0.412500X-0.650000X0.412500X0.650000X-0.412500X0.650000X0*%
%ADD28RoundRect,0.085500X0.769500X0.994500X-0.769500X0.994500X-0.769500X-0.994500X0.769500X-0.994500X0*%
%ADD29R,1.500000X2.300000*%
%ADD30O,1.500000X2.300000*%
%ADD31RoundRect,0.250000X0.400000X0.625000X-0.400000X0.625000X-0.400000X-0.625000X0.400000X-0.625000X0*%
%ADD32R,1.500000X1.500000*%
%ADD33RoundRect,0.250000X-1.950000X-1.000000X1.950000X-1.000000X1.950000X1.000000X-1.950000X1.000000X0*%
G04 APERTURE END LIST*
D10*
X101318857Y-99581857D02*
X101283142Y-99617571D01*
X101176000Y-99653285D01*
X101104571Y-99653285D01*
X100997428Y-99617571D01*
X100926000Y-99546142D01*
X100890285Y-99474714D01*
X100854571Y-99331857D01*
X100854571Y-99224714D01*
X100890285Y-99081857D01*
X100926000Y-99010428D01*
X100997428Y-98939000D01*
X101104571Y-98903285D01*
X101176000Y-98903285D01*
X101283142Y-98939000D01*
X101318857Y-98974714D01*
X101604571Y-99439000D02*
X101961714Y-99439000D01*
X101533142Y-99653285D02*
X101783142Y-98903285D01*
X102033142Y-99653285D01*
X102283142Y-99653285D02*
X102283142Y-98903285D01*
X102711714Y-99653285D01*
X102711714Y-98903285D01*
X103426000Y-99653285D02*
X103068857Y-99653285D01*
X103068857Y-98903285D01*
X104676000Y-99581857D02*
X104640285Y-99617571D01*
X104533142Y-99653285D01*
X104461714Y-99653285D01*
X104354571Y-99617571D01*
X104283142Y-99546142D01*
X104247428Y-99474714D01*
X104211714Y-99331857D01*
X104211714Y-99224714D01*
X104247428Y-99081857D01*
X104283142Y-99010428D01*
X104354571Y-98939000D01*
X104461714Y-98903285D01*
X104533142Y-98903285D01*
X104640285Y-98939000D01*
X104676000Y-98974714D01*
X104961714Y-99439000D02*
X105318857Y-99439000D01*
X104890285Y-99653285D02*
X105140285Y-98903285D01*
X105390285Y-99653285D01*
X105640285Y-99653285D02*
X105640285Y-98903285D01*
X106068857Y-99653285D01*
X106068857Y-98903285D01*
X106426000Y-99653285D02*
X106426000Y-98903285D01*
X106426000Y-99260428D02*
X106854571Y-99260428D01*
X106854571Y-99653285D02*
X106854571Y-98903285D01*
X108176000Y-98939000D02*
X108104571Y-98903285D01*
X107997428Y-98903285D01*
X107890285Y-98939000D01*
X107818857Y-99010428D01*
X107783142Y-99081857D01*
X107747428Y-99224714D01*
X107747428Y-99331857D01*
X107783142Y-99474714D01*
X107818857Y-99546142D01*
X107890285Y-99617571D01*
X107997428Y-99653285D01*
X108068857Y-99653285D01*
X108176000Y-99617571D01*
X108211714Y-99581857D01*
X108211714Y-99331857D01*
X108068857Y-99331857D01*
X108533142Y-99653285D02*
X108533142Y-98903285D01*
X108961714Y-99653285D01*
X108961714Y-98903285D01*
X109318857Y-99653285D02*
X109318857Y-98903285D01*
X109497428Y-98903285D01*
X109604571Y-98939000D01*
X109676000Y-99010428D01*
X109711714Y-99081857D01*
X109747428Y-99224714D01*
X109747428Y-99331857D01*
X109711714Y-99474714D01*
X109676000Y-99546142D01*
X109604571Y-99617571D01*
X109497428Y-99653285D01*
X109318857Y-99653285D01*
X110533142Y-98903285D02*
X110783142Y-99653285D01*
X111033142Y-98903285D01*
X111283142Y-99653285D02*
X111283142Y-99153285D01*
X111283142Y-98903285D02*
X111247428Y-98939000D01*
X111283142Y-98974714D01*
X111318857Y-98939000D01*
X111283142Y-98903285D01*
X111283142Y-98974714D01*
X111640285Y-99153285D02*
X111640285Y-99653285D01*
X111640285Y-99224714D02*
X111676000Y-99189000D01*
X111747428Y-99153285D01*
X111854571Y-99153285D01*
X111926000Y-99189000D01*
X111961714Y-99260428D01*
X111961714Y-99653285D01*
D11*
X158902476Y-86686000D02*
X158826285Y-86647904D01*
X158712000Y-86647904D01*
X158597714Y-86686000D01*
X158521523Y-86762190D01*
X158483428Y-86838380D01*
X158445333Y-86990761D01*
X158445333Y-87105047D01*
X158483428Y-87257428D01*
X158521523Y-87333619D01*
X158597714Y-87409809D01*
X158712000Y-87447904D01*
X158788190Y-87447904D01*
X158902476Y-87409809D01*
X158940571Y-87371714D01*
X158940571Y-87105047D01*
X158788190Y-87105047D01*
X159283428Y-87447904D02*
X159283428Y-86647904D01*
X159740571Y-87447904D01*
X159740571Y-86647904D01*
X160121523Y-87447904D02*
X160121523Y-86647904D01*
X160312000Y-86647904D01*
X160426285Y-86686000D01*
X160502476Y-86762190D01*
X160540571Y-86838380D01*
X160578666Y-86990761D01*
X160578666Y-87105047D01*
X160540571Y-87257428D01*
X160502476Y-87333619D01*
X160426285Y-87409809D01*
X160312000Y-87447904D01*
X160121523Y-87447904D01*
X159359619Y-89223904D02*
X158978666Y-89223904D01*
X158940571Y-89604857D01*
X158978666Y-89566761D01*
X159054857Y-89528666D01*
X159245333Y-89528666D01*
X159321523Y-89566761D01*
X159359619Y-89604857D01*
X159397714Y-89681047D01*
X159397714Y-89871523D01*
X159359619Y-89947714D01*
X159321523Y-89985809D01*
X159245333Y-90023904D01*
X159054857Y-90023904D01*
X158978666Y-89985809D01*
X158940571Y-89947714D01*
X159626285Y-89223904D02*
X159892952Y-90023904D01*
X160159619Y-89223904D01*
X158502476Y-92599904D02*
X158045333Y-92599904D01*
X158273904Y-92599904D02*
X158273904Y-91799904D01*
X158197714Y-91914190D01*
X158121523Y-91990380D01*
X158045333Y-92028476D01*
X158769142Y-91799904D02*
X158959619Y-92599904D01*
X159112000Y-92028476D01*
X159264380Y-92599904D01*
X159454857Y-91799904D01*
X159759619Y-92599904D02*
X159759619Y-92066571D01*
X159759619Y-91799904D02*
X159721523Y-91838000D01*
X159759619Y-91876095D01*
X159797714Y-91838000D01*
X159759619Y-91799904D01*
X159759619Y-91876095D01*
X160140571Y-92599904D02*
X160140571Y-92066571D01*
X160140571Y-92218952D02*
X160178666Y-92142761D01*
X160216761Y-92104666D01*
X160292952Y-92066571D01*
X160369142Y-92066571D01*
X160940571Y-92561809D02*
X160864380Y-92599904D01*
X160712000Y-92599904D01*
X160635809Y-92561809D01*
X160597714Y-92485619D01*
X160597714Y-92180857D01*
X160635809Y-92104666D01*
X160712000Y-92066571D01*
X160864380Y-92066571D01*
X160940571Y-92104666D01*
X160978666Y-92180857D01*
X160978666Y-92257047D01*
X160597714Y-92333238D01*
X158902476Y-79066000D02*
X158826285Y-79027904D01*
X158712000Y-79027904D01*
X158597714Y-79066000D01*
X158521523Y-79142190D01*
X158483428Y-79218380D01*
X158445333Y-79370761D01*
X158445333Y-79485047D01*
X158483428Y-79637428D01*
X158521523Y-79713619D01*
X158597714Y-79789809D01*
X158712000Y-79827904D01*
X158788190Y-79827904D01*
X158902476Y-79789809D01*
X158940571Y-79751714D01*
X158940571Y-79485047D01*
X158788190Y-79485047D01*
X159283428Y-79827904D02*
X159283428Y-79027904D01*
X159740571Y-79827904D01*
X159740571Y-79027904D01*
X160121523Y-79827904D02*
X160121523Y-79027904D01*
X160312000Y-79027904D01*
X160426285Y-79066000D01*
X160502476Y-79142190D01*
X160540571Y-79218380D01*
X160578666Y-79370761D01*
X160578666Y-79485047D01*
X160540571Y-79637428D01*
X160502476Y-79713619D01*
X160426285Y-79789809D01*
X160312000Y-79827904D01*
X160121523Y-79827904D01*
X159359619Y-81603904D02*
X158978666Y-81603904D01*
X158940571Y-81984857D01*
X158978666Y-81946761D01*
X159054857Y-81908666D01*
X159245333Y-81908666D01*
X159321523Y-81946761D01*
X159359619Y-81984857D01*
X159397714Y-82061047D01*
X159397714Y-82251523D01*
X159359619Y-82327714D01*
X159321523Y-82365809D01*
X159245333Y-82403904D01*
X159054857Y-82403904D01*
X158978666Y-82365809D01*
X158940571Y-82327714D01*
X159626285Y-81603904D02*
X159892952Y-82403904D01*
X160159619Y-81603904D01*
X158502476Y-84979904D02*
X158045333Y-84979904D01*
X158273904Y-84979904D02*
X158273904Y-84179904D01*
X158197714Y-84294190D01*
X158121523Y-84370380D01*
X158045333Y-84408476D01*
X158769142Y-84179904D02*
X158959619Y-84979904D01*
X159112000Y-84408476D01*
X159264380Y-84979904D01*
X159454857Y-84179904D01*
X159759619Y-84979904D02*
X159759619Y-84446571D01*
X159759619Y-84179904D02*
X159721523Y-84218000D01*
X159759619Y-84256095D01*
X159797714Y-84218000D01*
X159759619Y-84179904D01*
X159759619Y-84256095D01*
X160140571Y-84979904D02*
X160140571Y-84446571D01*
X160140571Y-84598952D02*
X160178666Y-84522761D01*
X160216761Y-84484666D01*
X160292952Y-84446571D01*
X160369142Y-84446571D01*
X160940571Y-84941809D02*
X160864380Y-84979904D01*
X160712000Y-84979904D01*
X160635809Y-84941809D01*
X160597714Y-84865619D01*
X160597714Y-84560857D01*
X160635809Y-84484666D01*
X160712000Y-84446571D01*
X160864380Y-84446571D01*
X160940571Y-84484666D01*
X160978666Y-84560857D01*
X160978666Y-84637047D01*
X160597714Y-84713238D01*
X158902476Y-71446000D02*
X158826285Y-71407904D01*
X158712000Y-71407904D01*
X158597714Y-71446000D01*
X158521523Y-71522190D01*
X158483428Y-71598380D01*
X158445333Y-71750761D01*
X158445333Y-71865047D01*
X158483428Y-72017428D01*
X158521523Y-72093619D01*
X158597714Y-72169809D01*
X158712000Y-72207904D01*
X158788190Y-72207904D01*
X158902476Y-72169809D01*
X158940571Y-72131714D01*
X158940571Y-71865047D01*
X158788190Y-71865047D01*
X159283428Y-72207904D02*
X159283428Y-71407904D01*
X159740571Y-72207904D01*
X159740571Y-71407904D01*
X160121523Y-72207904D02*
X160121523Y-71407904D01*
X160312000Y-71407904D01*
X160426285Y-71446000D01*
X160502476Y-71522190D01*
X160540571Y-71598380D01*
X160578666Y-71750761D01*
X160578666Y-71865047D01*
X160540571Y-72017428D01*
X160502476Y-72093619D01*
X160426285Y-72169809D01*
X160312000Y-72207904D01*
X160121523Y-72207904D01*
X159359619Y-73983904D02*
X158978666Y-73983904D01*
X158940571Y-74364857D01*
X158978666Y-74326761D01*
X159054857Y-74288666D01*
X159245333Y-74288666D01*
X159321523Y-74326761D01*
X159359619Y-74364857D01*
X159397714Y-74441047D01*
X159397714Y-74631523D01*
X159359619Y-74707714D01*
X159321523Y-74745809D01*
X159245333Y-74783904D01*
X159054857Y-74783904D01*
X158978666Y-74745809D01*
X158940571Y-74707714D01*
X159626285Y-73983904D02*
X159892952Y-74783904D01*
X160159619Y-73983904D01*
X158502476Y-77359904D02*
X158045333Y-77359904D01*
X158273904Y-77359904D02*
X158273904Y-76559904D01*
X158197714Y-76674190D01*
X158121523Y-76750380D01*
X158045333Y-76788476D01*
X158769142Y-76559904D02*
X158959619Y-77359904D01*
X159112000Y-76788476D01*
X159264380Y-77359904D01*
X159454857Y-76559904D01*
X159759619Y-77359904D02*
X159759619Y-76826571D01*
X159759619Y-76559904D02*
X159721523Y-76598000D01*
X159759619Y-76636095D01*
X159797714Y-76598000D01*
X159759619Y-76559904D01*
X159759619Y-76636095D01*
X160140571Y-77359904D02*
X160140571Y-76826571D01*
X160140571Y-76978952D02*
X160178666Y-76902761D01*
X160216761Y-76864666D01*
X160292952Y-76826571D01*
X160369142Y-76826571D01*
X160940571Y-77321809D02*
X160864380Y-77359904D01*
X160712000Y-77359904D01*
X160635809Y-77321809D01*
X160597714Y-77245619D01*
X160597714Y-76940857D01*
X160635809Y-76864666D01*
X160712000Y-76826571D01*
X160864380Y-76826571D01*
X160940571Y-76864666D01*
X160978666Y-76940857D01*
X160978666Y-77017047D01*
X160597714Y-77093238D01*
X121845238Y-52495380D02*
X122035714Y-52495380D01*
X122130952Y-52543000D01*
X122226190Y-52638238D01*
X122273809Y-52828714D01*
X122273809Y-53162047D01*
X122226190Y-53352523D01*
X122130952Y-53447761D01*
X122035714Y-53495380D01*
X121845238Y-53495380D01*
X121750000Y-53447761D01*
X121654761Y-53352523D01*
X121607142Y-53162047D01*
X121607142Y-52828714D01*
X121654761Y-52638238D01*
X121750000Y-52543000D01*
X121845238Y-52495380D01*
X122702380Y-52828714D02*
X122702380Y-53495380D01*
X122702380Y-52923952D02*
X122750000Y-52876333D01*
X122845238Y-52828714D01*
X122988095Y-52828714D01*
X123083333Y-52876333D01*
X123130952Y-52971571D01*
X123130952Y-53495380D01*
X123988095Y-53447761D02*
X123892857Y-53495380D01*
X123702380Y-53495380D01*
X123607142Y-53447761D01*
X123559523Y-53352523D01*
X123559523Y-52971571D01*
X123607142Y-52876333D01*
X123702380Y-52828714D01*
X123892857Y-52828714D01*
X123988095Y-52876333D01*
X124035714Y-52971571D01*
X124035714Y-53066809D01*
X123559523Y-53162047D01*
X124369047Y-52495380D02*
X124607142Y-53495380D01*
X124797619Y-52781095D01*
X124988095Y-53495380D01*
X125226190Y-52495380D01*
X125607142Y-53495380D02*
X125607142Y-52828714D01*
X125607142Y-52495380D02*
X125559523Y-52543000D01*
X125607142Y-52590619D01*
X125654761Y-52543000D01*
X125607142Y-52495380D01*
X125607142Y-52590619D01*
X126083333Y-53495380D02*
X126083333Y-52828714D01*
X126083333Y-53019190D02*
X126130952Y-52923952D01*
X126178571Y-52876333D01*
X126273809Y-52828714D01*
X126369047Y-52828714D01*
X127083333Y-53447761D02*
X126988095Y-53495380D01*
X126797619Y-53495380D01*
X126702380Y-53447761D01*
X126654761Y-53352523D01*
X126654761Y-52971571D01*
X126702380Y-52876333D01*
X126797619Y-52828714D01*
X126988095Y-52828714D01*
X127083333Y-52876333D01*
X127130952Y-52971571D01*
X127130952Y-53066809D01*
X126654761Y-53162047D01*
X128654761Y-52971571D02*
X128797619Y-53019190D01*
X128845238Y-53066809D01*
X128892857Y-53162047D01*
X128892857Y-53304904D01*
X128845238Y-53400142D01*
X128797619Y-53447761D01*
X128702380Y-53495380D01*
X128321428Y-53495380D01*
X128321428Y-52495380D01*
X128654761Y-52495380D01*
X128750000Y-52543000D01*
X128797619Y-52590619D01*
X128845238Y-52685857D01*
X128845238Y-52781095D01*
X128797619Y-52876333D01*
X128750000Y-52923952D01*
X128654761Y-52971571D01*
X128321428Y-52971571D01*
X129321428Y-53495380D02*
X129321428Y-52828714D01*
X129321428Y-53019190D02*
X129369047Y-52923952D01*
X129416666Y-52876333D01*
X129511904Y-52828714D01*
X129607142Y-52828714D01*
X130321428Y-53447761D02*
X130226190Y-53495380D01*
X130035714Y-53495380D01*
X129940476Y-53447761D01*
X129892857Y-53352523D01*
X129892857Y-52971571D01*
X129940476Y-52876333D01*
X130035714Y-52828714D01*
X130226190Y-52828714D01*
X130321428Y-52876333D01*
X130369047Y-52971571D01*
X130369047Y-53066809D01*
X129892857Y-53162047D01*
X131226190Y-53495380D02*
X131226190Y-52971571D01*
X131178571Y-52876333D01*
X131083333Y-52828714D01*
X130892857Y-52828714D01*
X130797619Y-52876333D01*
X131226190Y-53447761D02*
X131130952Y-53495380D01*
X130892857Y-53495380D01*
X130797619Y-53447761D01*
X130750000Y-53352523D01*
X130750000Y-53257285D01*
X130797619Y-53162047D01*
X130892857Y-53114428D01*
X131130952Y-53114428D01*
X131226190Y-53066809D01*
X131702380Y-53495380D02*
X131702380Y-52495380D01*
X131797619Y-53114428D02*
X132083333Y-53495380D01*
X132083333Y-52828714D02*
X131702380Y-53209666D01*
X132654761Y-53495380D02*
X132559523Y-53447761D01*
X132511904Y-53400142D01*
X132464285Y-53304904D01*
X132464285Y-53019190D01*
X132511904Y-52923952D01*
X132559523Y-52876333D01*
X132654761Y-52828714D01*
X132797619Y-52828714D01*
X132892857Y-52876333D01*
X132940476Y-52923952D01*
X132988095Y-53019190D01*
X132988095Y-53304904D01*
X132940476Y-53400142D01*
X132892857Y-53447761D01*
X132797619Y-53495380D01*
X132654761Y-53495380D01*
X133845238Y-52828714D02*
X133845238Y-53495380D01*
X133416666Y-52828714D02*
X133416666Y-53352523D01*
X133464285Y-53447761D01*
X133559523Y-53495380D01*
X133702380Y-53495380D01*
X133797619Y-53447761D01*
X133845238Y-53400142D01*
X134178571Y-52828714D02*
X134559523Y-52828714D01*
X134321428Y-52495380D02*
X134321428Y-53352523D01*
X134369047Y-53447761D01*
X134464285Y-53495380D01*
X134559523Y-53495380D01*
X135559523Y-52828714D02*
X135750000Y-53495380D01*
X135940476Y-53019190D01*
X136130952Y-53495380D01*
X136321428Y-52828714D01*
X136702380Y-53495380D02*
X136702380Y-52828714D01*
X136702380Y-52495380D02*
X136654761Y-52543000D01*
X136702380Y-52590619D01*
X136750000Y-52543000D01*
X136702380Y-52495380D01*
X136702380Y-52590619D01*
X137035714Y-52828714D02*
X137416666Y-52828714D01*
X137178571Y-52495380D02*
X137178571Y-53352523D01*
X137226190Y-53447761D01*
X137321428Y-53495380D01*
X137416666Y-53495380D01*
X137750000Y-53495380D02*
X137750000Y-52495380D01*
X138178571Y-53495380D02*
X138178571Y-52971571D01*
X138130952Y-52876333D01*
X138035714Y-52828714D01*
X137892857Y-52828714D01*
X137797619Y-52876333D01*
X137750000Y-52923952D01*
X139988095Y-53400142D02*
X139940476Y-53447761D01*
X139797619Y-53495380D01*
X139702380Y-53495380D01*
X139559523Y-53447761D01*
X139464285Y-53352523D01*
X139416666Y-53257285D01*
X139369047Y-53066809D01*
X139369047Y-52923952D01*
X139416666Y-52733476D01*
X139464285Y-52638238D01*
X139559523Y-52543000D01*
X139702380Y-52495380D01*
X139797619Y-52495380D01*
X139940476Y-52543000D01*
X139988095Y-52590619D01*
X140369047Y-53209666D02*
X140845238Y-53209666D01*
X140273809Y-53495380D02*
X140607142Y-52495380D01*
X140940476Y-53495380D01*
X141273809Y-53495380D02*
X141273809Y-52495380D01*
X141845238Y-53495380D01*
X141845238Y-52495380D01*
X123892857Y-55105380D02*
X123559523Y-54629190D01*
X123321428Y-55105380D02*
X123321428Y-54105380D01*
X123702380Y-54105380D01*
X123797619Y-54153000D01*
X123845238Y-54200619D01*
X123892857Y-54295857D01*
X123892857Y-54438714D01*
X123845238Y-54533952D01*
X123797619Y-54581571D01*
X123702380Y-54629190D01*
X123321428Y-54629190D01*
X124702380Y-55057761D02*
X124607142Y-55105380D01*
X124416666Y-55105380D01*
X124321428Y-55057761D01*
X124273809Y-54962523D01*
X124273809Y-54581571D01*
X124321428Y-54486333D01*
X124416666Y-54438714D01*
X124607142Y-54438714D01*
X124702380Y-54486333D01*
X124750000Y-54581571D01*
X124750000Y-54676809D01*
X124273809Y-54772047D01*
X125083333Y-54438714D02*
X125321428Y-55105380D01*
X125559523Y-54438714D01*
X126892857Y-54105380D02*
X126988095Y-54105380D01*
X127083333Y-54153000D01*
X127130952Y-54200619D01*
X127178571Y-54295857D01*
X127226190Y-54486333D01*
X127226190Y-54724428D01*
X127178571Y-54914904D01*
X127130952Y-55010142D01*
X127083333Y-55057761D01*
X126988095Y-55105380D01*
X126892857Y-55105380D01*
X126797619Y-55057761D01*
X126750000Y-55010142D01*
X126702380Y-54914904D01*
X126654761Y-54724428D01*
X126654761Y-54486333D01*
X126702380Y-54295857D01*
X126750000Y-54200619D01*
X126797619Y-54153000D01*
X126892857Y-54105380D01*
X127654761Y-55010142D02*
X127702380Y-55057761D01*
X127654761Y-55105380D01*
X127607142Y-55057761D01*
X127654761Y-55010142D01*
X127654761Y-55105380D01*
X128654761Y-55105380D02*
X128083333Y-55105380D01*
X128369047Y-55105380D02*
X128369047Y-54105380D01*
X128273809Y-54248238D01*
X128178571Y-54343476D01*
X128083333Y-54391095D01*
X130130952Y-55486333D02*
X130083333Y-55486333D01*
X129988095Y-55438714D01*
X129940476Y-55343476D01*
X129940476Y-54867285D01*
X129892857Y-54772047D01*
X129797619Y-54724428D01*
X129892857Y-54676809D01*
X129940476Y-54581571D01*
X129940476Y-54105380D01*
X129988095Y-54010142D01*
X130083333Y-53962523D01*
X130130952Y-53962523D01*
X130416666Y-54105380D02*
X130654761Y-55105380D01*
X130845238Y-54391095D01*
X131035714Y-55105380D01*
X131273809Y-54105380D01*
X131654761Y-55105380D02*
X131654761Y-54438714D01*
X131654761Y-54105380D02*
X131607142Y-54153000D01*
X131654761Y-54200619D01*
X131702380Y-54153000D01*
X131654761Y-54105380D01*
X131654761Y-54200619D01*
X132130952Y-54438714D02*
X132130952Y-55105380D01*
X132130952Y-54533952D02*
X132178571Y-54486333D01*
X132273809Y-54438714D01*
X132416666Y-54438714D01*
X132511904Y-54486333D01*
X132559523Y-54581571D01*
X132559523Y-55105380D01*
X132892857Y-54438714D02*
X133273809Y-54438714D01*
X133035714Y-54105380D02*
X133035714Y-54962523D01*
X133083333Y-55057761D01*
X133178571Y-55105380D01*
X133273809Y-55105380D01*
X133988095Y-55057761D02*
X133892857Y-55105380D01*
X133702380Y-55105380D01*
X133607142Y-55057761D01*
X133559523Y-54962523D01*
X133559523Y-54581571D01*
X133607142Y-54486333D01*
X133702380Y-54438714D01*
X133892857Y-54438714D01*
X133988095Y-54486333D01*
X134035714Y-54581571D01*
X134035714Y-54676809D01*
X133559523Y-54772047D01*
X134464285Y-55105380D02*
X134464285Y-54438714D01*
X134464285Y-54629190D02*
X134511904Y-54533952D01*
X134559523Y-54486333D01*
X134654761Y-54438714D01*
X134750000Y-54438714D01*
X135083333Y-54438714D02*
X135083333Y-55295857D01*
X135035714Y-55391095D01*
X134940476Y-55438714D01*
X134892857Y-55438714D01*
X135083333Y-54105380D02*
X135035714Y-54153000D01*
X135083333Y-54200619D01*
X135130952Y-54153000D01*
X135083333Y-54105380D01*
X135083333Y-54200619D01*
X135988095Y-55105380D02*
X135988095Y-54581571D01*
X135940476Y-54486333D01*
X135845238Y-54438714D01*
X135654761Y-54438714D01*
X135559523Y-54486333D01*
X135988095Y-55057761D02*
X135892857Y-55105380D01*
X135654761Y-55105380D01*
X135559523Y-55057761D01*
X135511904Y-54962523D01*
X135511904Y-54867285D01*
X135559523Y-54772047D01*
X135654761Y-54724428D01*
X135892857Y-54724428D01*
X135988095Y-54676809D01*
X136416666Y-55057761D02*
X136511904Y-55105380D01*
X136702380Y-55105380D01*
X136797619Y-55057761D01*
X136845238Y-54962523D01*
X136845238Y-54914904D01*
X136797619Y-54819666D01*
X136702380Y-54772047D01*
X136559523Y-54772047D01*
X136464285Y-54724428D01*
X136416666Y-54629190D01*
X136416666Y-54581571D01*
X136464285Y-54486333D01*
X136559523Y-54438714D01*
X136702380Y-54438714D01*
X136797619Y-54486333D01*
X137273809Y-55105380D02*
X137273809Y-54438714D01*
X137273809Y-54533952D02*
X137321428Y-54486333D01*
X137416666Y-54438714D01*
X137559523Y-54438714D01*
X137654761Y-54486333D01*
X137702380Y-54581571D01*
X137702380Y-55105380D01*
X137702380Y-54581571D02*
X137750000Y-54486333D01*
X137845238Y-54438714D01*
X137988095Y-54438714D01*
X138083333Y-54486333D01*
X138130952Y-54581571D01*
X138130952Y-55105380D01*
X138607142Y-55105380D02*
X138607142Y-54438714D01*
X138607142Y-54105380D02*
X138559523Y-54153000D01*
X138607142Y-54200619D01*
X138654761Y-54153000D01*
X138607142Y-54105380D01*
X138607142Y-54200619D01*
X139083333Y-54438714D02*
X139083333Y-55105380D01*
X139083333Y-54533952D02*
X139130952Y-54486333D01*
X139226190Y-54438714D01*
X139369047Y-54438714D01*
X139464285Y-54486333D01*
X139511904Y-54581571D01*
X139511904Y-55105380D01*
X139892857Y-55486333D02*
X139940476Y-55486333D01*
X140035714Y-55438714D01*
X140083333Y-55343476D01*
X140083333Y-54867285D01*
X140130952Y-54772047D01*
X140226190Y-54724428D01*
X140130952Y-54676809D01*
X140083333Y-54581571D01*
X140083333Y-54105380D01*
X140035714Y-54010142D01*
X139940476Y-53962523D01*
X139892857Y-53962523D01*
X148018666Y-89368380D02*
X148352000Y-90368380D01*
X148685333Y-89368380D01*
X149590095Y-90273142D02*
X149542476Y-90320761D01*
X149399619Y-90368380D01*
X149304380Y-90368380D01*
X149161523Y-90320761D01*
X149066285Y-90225523D01*
X149018666Y-90130285D01*
X148971047Y-89939809D01*
X148971047Y-89796952D01*
X149018666Y-89606476D01*
X149066285Y-89511238D01*
X149161523Y-89416000D01*
X149304380Y-89368380D01*
X149399619Y-89368380D01*
X149542476Y-89416000D01*
X149590095Y-89463619D01*
X150590095Y-90273142D02*
X150542476Y-90320761D01*
X150399619Y-90368380D01*
X150304380Y-90368380D01*
X150161523Y-90320761D01*
X150066285Y-90225523D01*
X150018666Y-90130285D01*
X149971047Y-89939809D01*
X149971047Y-89796952D01*
X150018666Y-89606476D01*
X150066285Y-89511238D01*
X150161523Y-89416000D01*
X150304380Y-89368380D01*
X150399619Y-89368380D01*
X150542476Y-89416000D01*
X150590095Y-89463619D01*
X138747523Y-89114380D02*
X138271333Y-89114380D01*
X138223714Y-89590571D01*
X138271333Y-89542952D01*
X138366571Y-89495333D01*
X138604666Y-89495333D01*
X138699904Y-89542952D01*
X138747523Y-89590571D01*
X138795142Y-89685809D01*
X138795142Y-89923904D01*
X138747523Y-90019142D01*
X138699904Y-90066761D01*
X138604666Y-90114380D01*
X138366571Y-90114380D01*
X138271333Y-90066761D01*
X138223714Y-90019142D01*
X139080857Y-89114380D02*
X139414190Y-90114380D01*
X139747523Y-89114380D01*
X158902476Y-63826000D02*
X158826285Y-63787904D01*
X158712000Y-63787904D01*
X158597714Y-63826000D01*
X158521523Y-63902190D01*
X158483428Y-63978380D01*
X158445333Y-64130761D01*
X158445333Y-64245047D01*
X158483428Y-64397428D01*
X158521523Y-64473619D01*
X158597714Y-64549809D01*
X158712000Y-64587904D01*
X158788190Y-64587904D01*
X158902476Y-64549809D01*
X158940571Y-64511714D01*
X158940571Y-64245047D01*
X158788190Y-64245047D01*
X159283428Y-64587904D02*
X159283428Y-63787904D01*
X159740571Y-64587904D01*
X159740571Y-63787904D01*
X160121523Y-64587904D02*
X160121523Y-63787904D01*
X160312000Y-63787904D01*
X160426285Y-63826000D01*
X160502476Y-63902190D01*
X160540571Y-63978380D01*
X160578666Y-64130761D01*
X160578666Y-64245047D01*
X160540571Y-64397428D01*
X160502476Y-64473619D01*
X160426285Y-64549809D01*
X160312000Y-64587904D01*
X160121523Y-64587904D01*
X159359619Y-66363904D02*
X158978666Y-66363904D01*
X158940571Y-66744857D01*
X158978666Y-66706761D01*
X159054857Y-66668666D01*
X159245333Y-66668666D01*
X159321523Y-66706761D01*
X159359619Y-66744857D01*
X159397714Y-66821047D01*
X159397714Y-67011523D01*
X159359619Y-67087714D01*
X159321523Y-67125809D01*
X159245333Y-67163904D01*
X159054857Y-67163904D01*
X158978666Y-67125809D01*
X158940571Y-67087714D01*
X159626285Y-66363904D02*
X159892952Y-67163904D01*
X160159619Y-66363904D01*
X158502476Y-69739904D02*
X158045333Y-69739904D01*
X158273904Y-69739904D02*
X158273904Y-68939904D01*
X158197714Y-69054190D01*
X158121523Y-69130380D01*
X158045333Y-69168476D01*
X158769142Y-68939904D02*
X158959619Y-69739904D01*
X159112000Y-69168476D01*
X159264380Y-69739904D01*
X159454857Y-68939904D01*
X159759619Y-69739904D02*
X159759619Y-69206571D01*
X159759619Y-68939904D02*
X159721523Y-68978000D01*
X159759619Y-69016095D01*
X159797714Y-68978000D01*
X159759619Y-68939904D01*
X159759619Y-69016095D01*
X160140571Y-69739904D02*
X160140571Y-69206571D01*
X160140571Y-69358952D02*
X160178666Y-69282761D01*
X160216761Y-69244666D01*
X160292952Y-69206571D01*
X160369142Y-69206571D01*
X160940571Y-69701809D02*
X160864380Y-69739904D01*
X160712000Y-69739904D01*
X160635809Y-69701809D01*
X160597714Y-69625619D01*
X160597714Y-69320857D01*
X160635809Y-69244666D01*
X160712000Y-69206571D01*
X160864380Y-69206571D01*
X160940571Y-69244666D01*
X160978666Y-69320857D01*
X160978666Y-69397047D01*
X160597714Y-69473238D01*
X103472380Y-49533333D02*
X104186666Y-49533333D01*
X104329523Y-49580952D01*
X104424761Y-49676190D01*
X104472380Y-49819047D01*
X104472380Y-49914285D01*
X103472380Y-48580952D02*
X103472380Y-49057142D01*
X103948571Y-49104761D01*
X103900952Y-49057142D01*
X103853333Y-48961904D01*
X103853333Y-48723809D01*
X103900952Y-48628571D01*
X103948571Y-48580952D01*
X104043809Y-48533333D01*
X104281904Y-48533333D01*
X104377142Y-48580952D01*
X104424761Y-48628571D01*
X104472380Y-48723809D01*
X104472380Y-48961904D01*
X104424761Y-49057142D01*
X104377142Y-49104761D01*
X145883333Y-81478380D02*
X145550000Y-81002190D01*
X145311904Y-81478380D02*
X145311904Y-80478380D01*
X145692857Y-80478380D01*
X145788095Y-80526000D01*
X145835714Y-80573619D01*
X145883333Y-80668857D01*
X145883333Y-80811714D01*
X145835714Y-80906952D01*
X145788095Y-80954571D01*
X145692857Y-81002190D01*
X145311904Y-81002190D01*
X146835714Y-81478380D02*
X146264285Y-81478380D01*
X146550000Y-81478380D02*
X146550000Y-80478380D01*
X146454761Y-80621238D01*
X146359523Y-80716476D01*
X146264285Y-80764095D01*
X148105904Y-88844380D02*
X148105904Y-87844380D01*
X148344000Y-87844380D01*
X148486857Y-87892000D01*
X148582095Y-87987238D01*
X148629714Y-88082476D01*
X148677333Y-88272952D01*
X148677333Y-88415809D01*
X148629714Y-88606285D01*
X148582095Y-88701523D01*
X148486857Y-88796761D01*
X148344000Y-88844380D01*
X148105904Y-88844380D01*
X149010666Y-87844380D02*
X149629714Y-87844380D01*
X149296380Y-88225333D01*
X149439238Y-88225333D01*
X149534476Y-88272952D01*
X149582095Y-88320571D01*
X149629714Y-88415809D01*
X149629714Y-88653904D01*
X149582095Y-88749142D01*
X149534476Y-88796761D01*
X149439238Y-88844380D01*
X149153523Y-88844380D01*
X149058285Y-88796761D01*
X149010666Y-88749142D01*
X137832380Y-59806667D02*
X137356190Y-60140001D01*
X137832380Y-60378096D02*
X136832380Y-60378096D01*
X136832380Y-59997143D01*
X136880000Y-59901905D01*
X136927619Y-59854286D01*
X137022857Y-59806667D01*
X137165714Y-59806667D01*
X137260952Y-59854286D01*
X137308571Y-59901905D01*
X137356190Y-59997143D01*
X137356190Y-60378096D01*
X137832380Y-59330477D02*
X137832380Y-59140001D01*
X137784761Y-59044762D01*
X137737142Y-58997143D01*
X137594285Y-58901905D01*
X137403809Y-58854286D01*
X137022857Y-58854286D01*
X136927619Y-58901905D01*
X136880000Y-58949524D01*
X136832380Y-59044762D01*
X136832380Y-59235239D01*
X136880000Y-59330477D01*
X136927619Y-59378096D01*
X137022857Y-59425715D01*
X137260952Y-59425715D01*
X137356190Y-59378096D01*
X137403809Y-59330477D01*
X137451428Y-59235239D01*
X137451428Y-59044762D01*
X137403809Y-58949524D01*
X137356190Y-58901905D01*
X137260952Y-58854286D01*
X143343333Y-81478380D02*
X143010000Y-81002190D01*
X142771904Y-81478380D02*
X142771904Y-80478380D01*
X143152857Y-80478380D01*
X143248095Y-80526000D01*
X143295714Y-80573619D01*
X143343333Y-80668857D01*
X143343333Y-80811714D01*
X143295714Y-80906952D01*
X143248095Y-80954571D01*
X143152857Y-81002190D01*
X142771904Y-81002190D01*
X143724285Y-80573619D02*
X143771904Y-80526000D01*
X143867142Y-80478380D01*
X144105238Y-80478380D01*
X144200476Y-80526000D01*
X144248095Y-80573619D01*
X144295714Y-80668857D01*
X144295714Y-80764095D01*
X144248095Y-80906952D01*
X143676666Y-81478380D01*
X144295714Y-81478380D01*
X106005333Y-57602380D02*
X105672000Y-57126190D01*
X105433904Y-57602380D02*
X105433904Y-56602380D01*
X105814857Y-56602380D01*
X105910095Y-56650000D01*
X105957714Y-56697619D01*
X106005333Y-56792857D01*
X106005333Y-56935714D01*
X105957714Y-57030952D01*
X105910095Y-57078571D01*
X105814857Y-57126190D01*
X105433904Y-57126190D01*
X106862476Y-56602380D02*
X106672000Y-56602380D01*
X106576761Y-56650000D01*
X106529142Y-56697619D01*
X106433904Y-56840476D01*
X106386285Y-57030952D01*
X106386285Y-57411904D01*
X106433904Y-57507142D01*
X106481523Y-57554761D01*
X106576761Y-57602380D01*
X106767238Y-57602380D01*
X106862476Y-57554761D01*
X106910095Y-57507142D01*
X106957714Y-57411904D01*
X106957714Y-57173809D01*
X106910095Y-57078571D01*
X106862476Y-57030952D01*
X106767238Y-56983333D01*
X106576761Y-56983333D01*
X106481523Y-57030952D01*
X106433904Y-57078571D01*
X106386285Y-57173809D01*
X106276666Y-90312380D02*
X106276666Y-91026666D01*
X106229047Y-91169523D01*
X106133809Y-91264761D01*
X105990952Y-91312380D01*
X105895714Y-91312380D01*
X107181428Y-90312380D02*
X106990952Y-90312380D01*
X106895714Y-90360000D01*
X106848095Y-90407619D01*
X106752857Y-90550476D01*
X106705238Y-90740952D01*
X106705238Y-91121904D01*
X106752857Y-91217142D01*
X106800476Y-91264761D01*
X106895714Y-91312380D01*
X107086190Y-91312380D01*
X107181428Y-91264761D01*
X107229047Y-91217142D01*
X107276666Y-91121904D01*
X107276666Y-90883809D01*
X107229047Y-90788571D01*
X107181428Y-90740952D01*
X107086190Y-90693333D01*
X106895714Y-90693333D01*
X106800476Y-90740952D01*
X106752857Y-90788571D01*
X106705238Y-90883809D01*
X153702619Y-55975238D02*
X153655000Y-56070476D01*
X153559761Y-56165714D01*
X153416904Y-56308571D01*
X153369285Y-56403809D01*
X153369285Y-56499047D01*
X153607380Y-56451428D02*
X153559761Y-56546666D01*
X153464523Y-56641904D01*
X153274047Y-56689523D01*
X152940714Y-56689523D01*
X152750238Y-56641904D01*
X152655000Y-56546666D01*
X152607380Y-56451428D01*
X152607380Y-56260952D01*
X152655000Y-56165714D01*
X152750238Y-56070476D01*
X152940714Y-56022857D01*
X153274047Y-56022857D01*
X153464523Y-56070476D01*
X153559761Y-56165714D01*
X153607380Y-56260952D01*
X153607380Y-56451428D01*
X153607380Y-55070476D02*
X153607380Y-55641904D01*
X153607380Y-55356190D02*
X152607380Y-55356190D01*
X152750238Y-55451428D01*
X152845476Y-55546666D01*
X152893095Y-55641904D01*
X109191666Y-81462380D02*
X109191666Y-82176666D01*
X109144047Y-82319523D01*
X109048809Y-82414761D01*
X108905952Y-82462380D01*
X108810714Y-82462380D01*
X109572619Y-81462380D02*
X110239285Y-81462380D01*
X109810714Y-82462380D01*
X110151904Y-90252380D02*
X110151904Y-89252380D01*
X110390000Y-89252380D01*
X110532857Y-89300000D01*
X110628095Y-89395238D01*
X110675714Y-89490476D01*
X110723333Y-89680952D01*
X110723333Y-89823809D01*
X110675714Y-90014285D01*
X110628095Y-90109523D01*
X110532857Y-90204761D01*
X110390000Y-90252380D01*
X110151904Y-90252380D01*
X111675714Y-90252380D02*
X111104285Y-90252380D01*
X111390000Y-90252380D02*
X111390000Y-89252380D01*
X111294761Y-89395238D01*
X111199523Y-89490476D01*
X111104285Y-89538095D01*
X128397095Y-68032380D02*
X128397095Y-68841904D01*
X128444714Y-68937142D01*
X128492333Y-68984761D01*
X128587571Y-69032380D01*
X128778047Y-69032380D01*
X128873285Y-68984761D01*
X128920904Y-68937142D01*
X128968523Y-68841904D01*
X128968523Y-68032380D01*
X129397095Y-68127619D02*
X129444714Y-68080000D01*
X129539952Y-68032380D01*
X129778047Y-68032380D01*
X129873285Y-68080000D01*
X129920904Y-68127619D01*
X129968523Y-68222857D01*
X129968523Y-68318095D01*
X129920904Y-68460952D01*
X129349476Y-69032380D01*
X129968523Y-69032380D01*
X149804380Y-62396666D02*
X149328190Y-62730000D01*
X149804380Y-62968095D02*
X148804380Y-62968095D01*
X148804380Y-62587142D01*
X148852000Y-62491904D01*
X148899619Y-62444285D01*
X148994857Y-62396666D01*
X149137714Y-62396666D01*
X149232952Y-62444285D01*
X149280571Y-62491904D01*
X149328190Y-62587142D01*
X149328190Y-62968095D01*
X148804380Y-62063333D02*
X148804380Y-61444285D01*
X149185333Y-61777619D01*
X149185333Y-61634761D01*
X149232952Y-61539523D01*
X149280571Y-61491904D01*
X149375809Y-61444285D01*
X149613904Y-61444285D01*
X149709142Y-61491904D01*
X149756761Y-61539523D01*
X149804380Y-61634761D01*
X149804380Y-61920476D01*
X149756761Y-62015714D01*
X149709142Y-62063333D01*
X154027619Y-61055238D02*
X153980000Y-61150476D01*
X153884761Y-61245714D01*
X153741904Y-61388571D01*
X153694285Y-61483809D01*
X153694285Y-61579047D01*
X153932380Y-61531428D02*
X153884761Y-61626666D01*
X153789523Y-61721904D01*
X153599047Y-61769523D01*
X153265714Y-61769523D01*
X153075238Y-61721904D01*
X152980000Y-61626666D01*
X152932380Y-61531428D01*
X152932380Y-61340952D01*
X152980000Y-61245714D01*
X153075238Y-61150476D01*
X153265714Y-61102857D01*
X153599047Y-61102857D01*
X153789523Y-61150476D01*
X153884761Y-61245714D01*
X153932380Y-61340952D01*
X153932380Y-61531428D01*
X153027619Y-60721904D02*
X152980000Y-60674285D01*
X152932380Y-60579047D01*
X152932380Y-60340952D01*
X152980000Y-60245714D01*
X153027619Y-60198095D01*
X153122857Y-60150476D01*
X153218095Y-60150476D01*
X153360952Y-60198095D01*
X153932380Y-60769523D01*
X153932380Y-60150476D01*
X141642380Y-60282858D02*
X141166190Y-60616191D01*
X141642380Y-60854286D02*
X140642380Y-60854286D01*
X140642380Y-60473334D01*
X140690000Y-60378096D01*
X140737619Y-60330477D01*
X140832857Y-60282858D01*
X140975714Y-60282858D01*
X141070952Y-60330477D01*
X141118571Y-60378096D01*
X141166190Y-60473334D01*
X141166190Y-60854286D01*
X141642380Y-59330477D02*
X141642380Y-59901905D01*
X141642380Y-59616191D02*
X140642380Y-59616191D01*
X140785238Y-59711429D01*
X140880476Y-59806667D01*
X140928095Y-59901905D01*
X140642380Y-58711429D02*
X140642380Y-58616191D01*
X140690000Y-58520953D01*
X140737619Y-58473334D01*
X140832857Y-58425715D01*
X141023333Y-58378096D01*
X141261428Y-58378096D01*
X141451904Y-58425715D01*
X141547142Y-58473334D01*
X141594761Y-58520953D01*
X141642380Y-58616191D01*
X141642380Y-58711429D01*
X141594761Y-58806667D01*
X141547142Y-58854286D01*
X141451904Y-58901905D01*
X141261428Y-58949524D01*
X141023333Y-58949524D01*
X140832857Y-58901905D01*
X140737619Y-58854286D01*
X140690000Y-58806667D01*
X140642380Y-58711429D01*
X128516142Y-78811380D02*
X128182809Y-78335190D01*
X127944714Y-78811380D02*
X127944714Y-77811380D01*
X128325666Y-77811380D01*
X128420904Y-77859000D01*
X128468523Y-77906619D01*
X128516142Y-78001857D01*
X128516142Y-78144714D01*
X128468523Y-78239952D01*
X128420904Y-78287571D01*
X128325666Y-78335190D01*
X127944714Y-78335190D01*
X129468523Y-78811380D02*
X128897095Y-78811380D01*
X129182809Y-78811380D02*
X129182809Y-77811380D01*
X129087571Y-77954238D01*
X128992333Y-78049476D01*
X128897095Y-78097095D01*
X130420904Y-78811380D02*
X129849476Y-78811380D01*
X130135190Y-78811380D02*
X130135190Y-77811380D01*
X130039952Y-77954238D01*
X129944714Y-78049476D01*
X129849476Y-78097095D01*
X135215333Y-75795142D02*
X135167714Y-75842761D01*
X135024857Y-75890380D01*
X134929619Y-75890380D01*
X134786761Y-75842761D01*
X134691523Y-75747523D01*
X134643904Y-75652285D01*
X134596285Y-75461809D01*
X134596285Y-75318952D01*
X134643904Y-75128476D01*
X134691523Y-75033238D01*
X134786761Y-74938000D01*
X134929619Y-74890380D01*
X135024857Y-74890380D01*
X135167714Y-74938000D01*
X135215333Y-74985619D01*
X135548666Y-74890380D02*
X136167714Y-74890380D01*
X135834380Y-75271333D01*
X135977238Y-75271333D01*
X136072476Y-75318952D01*
X136120095Y-75366571D01*
X136167714Y-75461809D01*
X136167714Y-75699904D01*
X136120095Y-75795142D01*
X136072476Y-75842761D01*
X135977238Y-75890380D01*
X135691523Y-75890380D01*
X135596285Y-75842761D01*
X135548666Y-75795142D01*
X166838380Y-95583333D02*
X167552666Y-95583333D01*
X167695523Y-95630952D01*
X167790761Y-95726190D01*
X167838380Y-95869047D01*
X167838380Y-95964285D01*
X167266952Y-94964285D02*
X167219333Y-95059523D01*
X167171714Y-95107142D01*
X167076476Y-95154761D01*
X167028857Y-95154761D01*
X166933619Y-95107142D01*
X166886000Y-95059523D01*
X166838380Y-94964285D01*
X166838380Y-94773809D01*
X166886000Y-94678571D01*
X166933619Y-94630952D01*
X167028857Y-94583333D01*
X167076476Y-94583333D01*
X167171714Y-94630952D01*
X167219333Y-94678571D01*
X167266952Y-94773809D01*
X167266952Y-94964285D01*
X167314571Y-95059523D01*
X167362190Y-95107142D01*
X167457428Y-95154761D01*
X167647904Y-95154761D01*
X167743142Y-95107142D01*
X167790761Y-95059523D01*
X167838380Y-94964285D01*
X167838380Y-94773809D01*
X167790761Y-94678571D01*
X167743142Y-94630952D01*
X167647904Y-94583333D01*
X167457428Y-94583333D01*
X167362190Y-94630952D01*
X167314571Y-94678571D01*
X167266952Y-94773809D01*
X138199904Y-88590380D02*
X138199904Y-87590380D01*
X138438000Y-87590380D01*
X138580857Y-87638000D01*
X138676095Y-87733238D01*
X138723714Y-87828476D01*
X138771333Y-88018952D01*
X138771333Y-88161809D01*
X138723714Y-88352285D01*
X138676095Y-88447523D01*
X138580857Y-88542761D01*
X138438000Y-88590380D01*
X138199904Y-88590380D01*
X139152285Y-87685619D02*
X139199904Y-87638000D01*
X139295142Y-87590380D01*
X139533238Y-87590380D01*
X139628476Y-87638000D01*
X139676095Y-87685619D01*
X139723714Y-87780857D01*
X139723714Y-87876095D01*
X139676095Y-88018952D01*
X139104666Y-88590380D01*
X139723714Y-88590380D01*
X106662380Y-88038095D02*
X105662380Y-88038095D01*
X105662380Y-87800000D01*
X105710000Y-87657142D01*
X105805238Y-87561904D01*
X105900476Y-87514285D01*
X106090952Y-87466666D01*
X106233809Y-87466666D01*
X106424285Y-87514285D01*
X106519523Y-87561904D01*
X106614761Y-87657142D01*
X106662380Y-87800000D01*
X106662380Y-88038095D01*
X105995714Y-86609523D02*
X106662380Y-86609523D01*
X105614761Y-86847619D02*
X106329047Y-87085714D01*
X106329047Y-86466666D01*
X159562380Y-52236666D02*
X159086190Y-52570000D01*
X159562380Y-52808095D02*
X158562380Y-52808095D01*
X158562380Y-52427142D01*
X158610000Y-52331904D01*
X158657619Y-52284285D01*
X158752857Y-52236666D01*
X158895714Y-52236666D01*
X158990952Y-52284285D01*
X159038571Y-52331904D01*
X159086190Y-52427142D01*
X159086190Y-52808095D01*
X158562380Y-51331904D02*
X158562380Y-51808095D01*
X159038571Y-51855714D01*
X158990952Y-51808095D01*
X158943333Y-51712857D01*
X158943333Y-51474761D01*
X158990952Y-51379523D01*
X159038571Y-51331904D01*
X159133809Y-51284285D01*
X159371904Y-51284285D01*
X159467142Y-51331904D01*
X159514761Y-51379523D01*
X159562380Y-51474761D01*
X159562380Y-51712857D01*
X159514761Y-51808095D01*
X159467142Y-51855714D01*
X140549333Y-94591142D02*
X140501714Y-94638761D01*
X140358857Y-94686380D01*
X140263619Y-94686380D01*
X140120761Y-94638761D01*
X140025523Y-94543523D01*
X139977904Y-94448285D01*
X139930285Y-94257809D01*
X139930285Y-94114952D01*
X139977904Y-93924476D01*
X140025523Y-93829238D01*
X140120761Y-93734000D01*
X140263619Y-93686380D01*
X140358857Y-93686380D01*
X140501714Y-93734000D01*
X140549333Y-93781619D01*
X141406476Y-94019714D02*
X141406476Y-94686380D01*
X141168380Y-93638761D02*
X140930285Y-94353047D01*
X141549333Y-94353047D01*
X119213333Y-86137142D02*
X119165714Y-86184761D01*
X119022857Y-86232380D01*
X118927619Y-86232380D01*
X118784761Y-86184761D01*
X118689523Y-86089523D01*
X118641904Y-85994285D01*
X118594285Y-85803809D01*
X118594285Y-85660952D01*
X118641904Y-85470476D01*
X118689523Y-85375238D01*
X118784761Y-85280000D01*
X118927619Y-85232380D01*
X119022857Y-85232380D01*
X119165714Y-85280000D01*
X119213333Y-85327619D01*
X120165714Y-86232380D02*
X119594285Y-86232380D01*
X119880000Y-86232380D02*
X119880000Y-85232380D01*
X119784761Y-85375238D01*
X119689523Y-85470476D01*
X119594285Y-85518095D01*
X102544571Y-72874095D02*
X102544571Y-73207428D01*
X103068380Y-73207428D02*
X102068380Y-73207428D01*
X102068380Y-72731238D01*
X103068380Y-71874095D02*
X103068380Y-72350285D01*
X102068380Y-72350285D01*
X103068380Y-71016952D02*
X103068380Y-71588380D01*
X103068380Y-71302666D02*
X102068380Y-71302666D01*
X102211238Y-71397904D01*
X102306476Y-71493142D01*
X102354095Y-71588380D01*
X118288095Y-94372380D02*
X118288095Y-95181904D01*
X118335714Y-95277142D01*
X118383333Y-95324761D01*
X118478571Y-95372380D01*
X118669047Y-95372380D01*
X118764285Y-95324761D01*
X118811904Y-95277142D01*
X118859523Y-95181904D01*
X118859523Y-94372380D01*
X119859523Y-95372380D02*
X119288095Y-95372380D01*
X119573809Y-95372380D02*
X119573809Y-94372380D01*
X119478571Y-94515238D01*
X119383333Y-94610476D01*
X119288095Y-94658095D01*
X108799333Y-57602380D02*
X108466000Y-57126190D01*
X108227904Y-57602380D02*
X108227904Y-56602380D01*
X108608857Y-56602380D01*
X108704095Y-56650000D01*
X108751714Y-56697619D01*
X108799333Y-56792857D01*
X108799333Y-56935714D01*
X108751714Y-57030952D01*
X108704095Y-57078571D01*
X108608857Y-57126190D01*
X108227904Y-57126190D01*
X109132666Y-56602380D02*
X109799333Y-56602380D01*
X109370761Y-57602380D01*
X107783333Y-84018380D02*
X107450000Y-83542190D01*
X107211904Y-84018380D02*
X107211904Y-83018380D01*
X107592857Y-83018380D01*
X107688095Y-83066000D01*
X107735714Y-83113619D01*
X107783333Y-83208857D01*
X107783333Y-83351714D01*
X107735714Y-83446952D01*
X107688095Y-83494571D01*
X107592857Y-83542190D01*
X107211904Y-83542190D01*
X108354761Y-83446952D02*
X108259523Y-83399333D01*
X108211904Y-83351714D01*
X108164285Y-83256476D01*
X108164285Y-83208857D01*
X108211904Y-83113619D01*
X108259523Y-83066000D01*
X108354761Y-83018380D01*
X108545238Y-83018380D01*
X108640476Y-83066000D01*
X108688095Y-83113619D01*
X108735714Y-83208857D01*
X108735714Y-83256476D01*
X108688095Y-83351714D01*
X108640476Y-83399333D01*
X108545238Y-83446952D01*
X108354761Y-83446952D01*
X108259523Y-83494571D01*
X108211904Y-83542190D01*
X108164285Y-83637428D01*
X108164285Y-83827904D01*
X108211904Y-83923142D01*
X108259523Y-83970761D01*
X108354761Y-84018380D01*
X108545238Y-84018380D01*
X108640476Y-83970761D01*
X108688095Y-83923142D01*
X108735714Y-83827904D01*
X108735714Y-83637428D01*
X108688095Y-83542190D01*
X108640476Y-83494571D01*
X108545238Y-83446952D01*
X122182095Y-65622380D02*
X122753523Y-65622380D01*
X122467809Y-66622380D02*
X122467809Y-65622380D01*
X123086857Y-66622380D02*
X123086857Y-65622380D01*
X123467809Y-65622380D01*
X123563047Y-65670000D01*
X123610666Y-65717619D01*
X123658285Y-65812857D01*
X123658285Y-65955714D01*
X123610666Y-66050952D01*
X123563047Y-66098571D01*
X123467809Y-66146190D01*
X123086857Y-66146190D01*
X124610666Y-66622380D02*
X124039238Y-66622380D01*
X124324952Y-66622380D02*
X124324952Y-65622380D01*
X124229714Y-65765238D01*
X124134476Y-65860476D01*
X124039238Y-65908095D01*
X149804380Y-56046666D02*
X149328190Y-56380000D01*
X149804380Y-56618095D02*
X148804380Y-56618095D01*
X148804380Y-56237142D01*
X148852000Y-56141904D01*
X148899619Y-56094285D01*
X148994857Y-56046666D01*
X149137714Y-56046666D01*
X149232952Y-56094285D01*
X149280571Y-56141904D01*
X149328190Y-56237142D01*
X149328190Y-56618095D01*
X149137714Y-55189523D02*
X149804380Y-55189523D01*
X148756761Y-55427619D02*
X149471047Y-55665714D01*
X149471047Y-55046666D01*
X130897333Y-81433142D02*
X130849714Y-81480761D01*
X130706857Y-81528380D01*
X130611619Y-81528380D01*
X130468761Y-81480761D01*
X130373523Y-81385523D01*
X130325904Y-81290285D01*
X130278285Y-81099809D01*
X130278285Y-80956952D01*
X130325904Y-80766476D01*
X130373523Y-80671238D01*
X130468761Y-80576000D01*
X130611619Y-80528380D01*
X130706857Y-80528380D01*
X130849714Y-80576000D01*
X130897333Y-80623619D01*
X131278285Y-80623619D02*
X131325904Y-80576000D01*
X131421142Y-80528380D01*
X131659238Y-80528380D01*
X131754476Y-80576000D01*
X131802095Y-80623619D01*
X131849714Y-80718857D01*
X131849714Y-80814095D01*
X131802095Y-80956952D01*
X131230666Y-81528380D01*
X131849714Y-81528380D01*
D12*
X147050000Y-98790000D02*
X147050000Y-96130000D01*
X129210000Y-96130000D02*
X147050000Y-96130000D01*
X129210000Y-98790000D02*
X129210000Y-96130000D01*
X126610000Y-97460000D02*
X126610000Y-96130000D01*
X126610000Y-96130000D02*
X127940000Y-96130000D01*
X129210000Y-98790000D02*
X147050000Y-98790000D01*
X152070000Y-96130000D02*
X164830000Y-96130000D01*
X149470000Y-97460000D02*
X149470000Y-96130000D01*
X152070000Y-98790000D02*
X152070000Y-96130000D01*
X152070000Y-98790000D02*
X164830000Y-98790000D01*
X164830000Y-98790000D02*
X164830000Y-96130000D01*
X149470000Y-96130000D02*
X150800000Y-96130000D01*
X142986000Y-50530000D02*
X142986000Y-47870000D01*
X120066000Y-50530000D02*
X142986000Y-50530000D01*
X117466000Y-47870000D02*
X118796000Y-47870000D01*
X117466000Y-49200000D02*
X117466000Y-47870000D01*
X120066000Y-47870000D02*
X142986000Y-47870000D01*
X120066000Y-50530000D02*
X120066000Y-47870000D01*
X164830000Y-50530000D02*
X164830000Y-47870000D01*
X146990000Y-50530000D02*
X164830000Y-50530000D01*
X144390000Y-49200000D02*
X144390000Y-47870000D01*
X146990000Y-50530000D02*
X146990000Y-47870000D01*
X144390000Y-47870000D02*
X145720000Y-47870000D01*
X146990000Y-47870000D02*
X164830000Y-47870000D01*
X115300000Y-50530000D02*
X115300000Y-47870000D01*
X107620000Y-50530000D02*
X115300000Y-50530000D01*
X107620000Y-50530000D02*
X107620000Y-47870000D01*
X106350000Y-50530000D02*
X105020000Y-50530000D01*
X107620000Y-47870000D02*
X115300000Y-47870000D01*
X105020000Y-50530000D02*
X105020000Y-49200000D01*
X145140000Y-84801064D02*
X145140000Y-83346936D01*
X146960000Y-84801064D02*
X146960000Y-83346936D01*
X147635000Y-91516000D02*
X147635000Y-87456000D01*
X147635000Y-87456000D02*
X144465000Y-87456000D01*
X144465000Y-87456000D02*
X144465000Y-91516000D01*
X136470000Y-58912937D02*
X136470000Y-60367065D01*
X134650000Y-58912937D02*
X134650000Y-60367065D01*
X142600000Y-84801064D02*
X142600000Y-83346936D01*
X144420000Y-84801064D02*
X144420000Y-83346936D01*
X107082000Y-54575064D02*
X107082000Y-53120936D01*
X105262000Y-54575064D02*
X105262000Y-53120936D01*
X101240000Y-91860000D02*
X101240000Y-98180000D01*
X101000000Y-98420000D02*
X101500000Y-98420000D01*
X111980000Y-91860000D02*
X111980000Y-98180000D01*
X101240000Y-91860000D02*
X111980000Y-91860000D01*
X101000000Y-97680000D02*
X101000000Y-98420000D01*
X101240000Y-92320000D02*
X111980000Y-92320000D01*
X101240000Y-97620000D02*
X111980000Y-97620000D01*
X101240000Y-98180000D02*
X111980000Y-98180000D01*
X153995000Y-55880000D02*
X153995000Y-57555000D01*
X157115000Y-55880000D02*
X157115000Y-56530000D01*
X153995000Y-55880000D02*
X153995000Y-55230000D01*
X157115000Y-55880000D02*
X157115000Y-55230000D01*
X110855000Y-78410000D02*
X110855000Y-75810000D01*
X110855000Y-78410000D02*
X108195000Y-78410000D01*
X110855000Y-81010000D02*
X109525000Y-81010000D01*
X110855000Y-79680000D02*
X110855000Y-81010000D01*
X110855000Y-75810000D02*
X108195000Y-75810000D01*
X108195000Y-78410000D02*
X108195000Y-75810000D01*
X114290000Y-88950000D02*
X114290000Y-85650000D01*
X114290000Y-88950000D02*
X108890000Y-88950000D01*
X114290000Y-85650000D02*
X108890000Y-85650000D01*
X129210000Y-69500000D02*
X127260000Y-69500000D01*
X129210000Y-74620000D02*
X127260000Y-74620000D01*
X129210000Y-69500000D02*
X131160000Y-69500000D01*
X129210000Y-74620000D02*
X132660000Y-74620000D01*
X152040000Y-56607064D02*
X152040000Y-55152936D01*
X150220000Y-56607064D02*
X150220000Y-55152936D01*
X157440000Y-60960000D02*
X157440000Y-60310000D01*
X154320000Y-60960000D02*
X154320000Y-60310000D01*
X157440000Y-60960000D02*
X157440000Y-61610000D01*
X154320000Y-60960000D02*
X154320000Y-62635000D01*
X140280000Y-58912937D02*
X140280000Y-60367065D01*
X138460000Y-58912937D02*
X138460000Y-60367065D01*
X128431936Y-77491000D02*
X129886064Y-77491000D01*
X128431936Y-75671000D02*
X129886064Y-75671000D01*
X136292000Y-72847252D02*
X136292000Y-71424748D01*
X134472000Y-72847252D02*
X134472000Y-71424748D01*
X161610000Y-93666000D02*
X167930000Y-93666000D01*
X161610000Y-93666000D02*
X161610000Y-62605000D01*
X161610000Y-62605000D02*
X167930000Y-62605000D01*
X162070000Y-93666000D02*
X162070000Y-62605000D01*
X167430000Y-93906000D02*
X168170000Y-93906000D01*
X167370000Y-93666000D02*
X167370000Y-62605000D01*
X167930000Y-93666000D02*
X167930000Y-62605000D01*
X168170000Y-93906000D02*
X168170000Y-93406000D01*
X140147000Y-87456000D02*
X140147000Y-91516000D01*
X143317000Y-91516000D02*
X143317000Y-87456000D01*
X143317000Y-87456000D02*
X140147000Y-87456000D01*
X105370000Y-87300000D02*
X105370000Y-87950000D01*
X102250000Y-87300000D02*
X102250000Y-86650000D01*
X105370000Y-87300000D02*
X105370000Y-85625000D01*
X102250000Y-87300000D02*
X102250000Y-87950000D01*
X157840000Y-55152936D02*
X157840000Y-56607064D01*
X159660000Y-55152936D02*
X159660000Y-56607064D01*
X144983252Y-95144000D02*
X143560748Y-95144000D01*
X144983252Y-93324000D02*
X143560748Y-93324000D01*
X118668748Y-88540000D02*
X120091252Y-88540000D01*
X118668748Y-86720000D02*
X120091252Y-86720000D01*
X105986000Y-81070000D02*
X105986000Y-73870000D01*
X101786000Y-81070000D02*
X101786000Y-73870000D01*
X106186000Y-81270000D02*
X106186000Y-79825000D01*
X105986000Y-73870000D02*
X101786000Y-73870000D01*
X106186000Y-81270000D02*
X104586000Y-81270000D01*
X105986000Y-81070000D02*
X101786000Y-81070000D01*
X113232000Y-99187500D02*
X124953000Y-99187500D01*
X112992000Y-99427500D02*
X114232000Y-99427500D01*
X113232000Y-90567500D02*
X124953000Y-90567500D01*
X112992000Y-98187500D02*
X112992000Y-99427500D01*
X113232000Y-90567500D02*
X113232000Y-99187500D01*
X124953000Y-90567500D02*
X124953000Y-99187500D01*
X109876000Y-54575064D02*
X109876000Y-53120936D01*
X108056000Y-54575064D02*
X108056000Y-53120936D01*
X105117065Y-84400000D02*
X103662937Y-84400000D01*
X105117065Y-82580000D02*
X103662937Y-82580000D01*
X122494000Y-66868000D02*
X124394000Y-66868000D01*
X122494000Y-68768000D02*
X122494000Y-66868000D01*
X124394000Y-66868000D02*
X124394000Y-68768000D01*
X124394000Y-68768000D02*
X122494000Y-68768000D01*
X150220000Y-61502936D02*
X150220000Y-62957064D01*
X152040000Y-61502936D02*
X152040000Y-62957064D01*
X136424000Y-92736000D02*
X136424000Y-88886000D01*
X125704000Y-83080437D02*
X125704000Y-85866000D01*
X125704000Y-91671563D02*
X125704000Y-88886000D01*
X125704000Y-83080437D02*
X126768437Y-82016000D01*
X136424000Y-82016000D02*
X136424000Y-85866000D01*
X124839000Y-83991000D02*
X124839000Y-85241000D01*
X126768437Y-82016000D02*
X136424000Y-82016000D01*
X126768437Y-92736000D02*
X136424000Y-92736000D01*
X125704000Y-91671563D02*
X126768437Y-92736000D01*
X124214000Y-84616000D02*
X125464000Y-84616000D01*
%LPC*%
D13*
X127940000Y-97460000D03*
D14*
X130480000Y-97460000D03*
X133020000Y-97460000D03*
X135560000Y-97460000D03*
X138100000Y-97460000D03*
X140640000Y-97460000D03*
X143180000Y-97460000D03*
X145720000Y-97460000D03*
D13*
X150800000Y-97460000D03*
D14*
X153340000Y-97460000D03*
X155880000Y-97460000D03*
X158420000Y-97460000D03*
X160960000Y-97460000D03*
X163500000Y-97460000D03*
D13*
X118796000Y-49200000D03*
D14*
X121336000Y-49200000D03*
X123876000Y-49200000D03*
X126416000Y-49200000D03*
X128956000Y-49200000D03*
X131496000Y-49200000D03*
X134036000Y-49200000D03*
X136576000Y-49200000D03*
X139116000Y-49200000D03*
X141656000Y-49200000D03*
D13*
X145720000Y-49200000D03*
D14*
X148260000Y-49200000D03*
X150800000Y-49200000D03*
X153340000Y-49200000D03*
X155880000Y-49200000D03*
X158420000Y-49200000D03*
X160960000Y-49200000D03*
X163500000Y-49200000D03*
D13*
X106350000Y-49200000D03*
D14*
X108890000Y-49200000D03*
X111430000Y-49200000D03*
X113970000Y-49200000D03*
D15*
X146050000Y-85624000D03*
X146050000Y-82524000D03*
D16*
X146050000Y-88428500D03*
X146050000Y-91403500D03*
D17*
X135560000Y-58090001D03*
X135560000Y-61190001D03*
D15*
X143510000Y-85624000D03*
X143510000Y-82524000D03*
X106172000Y-55398000D03*
X106172000Y-52298000D03*
D18*
X102800000Y-95020000D03*
D19*
X105340000Y-95020000D03*
X107880000Y-95020000D03*
X110420000Y-95020000D03*
D20*
X154605000Y-56817500D03*
X156505000Y-56817500D03*
X155555000Y-54942500D03*
D13*
X109525000Y-79680000D03*
D14*
X109525000Y-77140000D03*
D21*
X112890000Y-87300000D03*
X108890000Y-87300000D03*
D22*
X131685000Y-73965000D03*
X131685000Y-72695000D03*
X131685000Y-71425000D03*
X131685000Y-70155000D03*
X126735000Y-70155000D03*
X126735000Y-71425000D03*
X126735000Y-72695000D03*
X126735000Y-73965000D03*
D15*
X151130000Y-57430000D03*
X151130000Y-54330000D03*
D20*
X154930000Y-61897500D03*
X156830000Y-61897500D03*
X155880000Y-60022500D03*
D17*
X139370000Y-58090001D03*
X139370000Y-61190001D03*
D23*
X127609000Y-76581000D03*
X130709000Y-76581000D03*
D24*
X135382000Y-73698500D03*
X135382000Y-70573500D03*
D18*
X164770000Y-92106000D03*
D19*
X164770000Y-89566000D03*
X164770000Y-87026000D03*
X164770000Y-84486000D03*
X164770000Y-81946000D03*
X164770000Y-79406000D03*
X164770000Y-76866000D03*
X164770000Y-74326000D03*
X164770000Y-71786000D03*
X164770000Y-69246000D03*
X164770000Y-66706000D03*
X164770000Y-64166000D03*
D16*
X141732000Y-88428500D03*
X141732000Y-91403500D03*
D25*
X104760000Y-86362500D03*
X102860000Y-86362500D03*
X103810000Y-88237500D03*
D17*
X158750000Y-54330000D03*
X158750000Y-57430000D03*
D26*
X145834500Y-94234000D03*
X142709500Y-94234000D03*
D27*
X117817500Y-87630000D03*
X120942500Y-87630000D03*
D28*
X105031000Y-79890000D03*
X105031000Y-75050000D03*
X102741000Y-75050000D03*
X102741000Y-79890000D03*
D29*
X116603000Y-97127500D03*
D30*
X119143000Y-97127500D03*
X121683000Y-97127500D03*
D15*
X108966000Y-55398000D03*
X108966000Y-52298000D03*
D31*
X105940001Y-83490000D03*
X102840001Y-83490000D03*
D32*
X123444000Y-67818000D03*
D17*
X151130000Y-60680000D03*
X151130000Y-63780000D03*
D33*
X126864000Y-87376000D03*
X135264000Y-87376000D03*
M02*
